#N canvas 460 369 902 608 12;
#X msg 365 106 start;
#X obj 373 2 loadbang;
#X obj 365 49 delay 100;
#X obj 78 218 osc~ 220;
#X obj 78 191 +~ 220;
#X obj 287 312 writesf~ 2;
#X obj 185 215 osc~ 220;
#X obj 186 188 +~ 220;
#X obj 187 134 osc~;
#X obj 79 137 osc~;
#X obj 129 74 +~ 40;
#X obj 128 20 osc~ 0.1;
#X obj 186 108 *~ 1.1;
#X obj 128 46 *~ 100;
#X obj 186 161 *~ 50;
#X obj 78 164 *~ 51;
#X msg 320 78 open /bla.mp3;
#X obj 644 291 tabplay~ SOUND1;
#X obj 689 321 tabplay~ SOUND2;
#X obj 648 356 dac~;
#X obj 493 159 soundfiler;
#X msg 444 159 stop;
#X msg 697 239 bang;
#X obj 493 87 delay 500;
#X obj 296 344 print [writesf~];
#X obj 695 348 print [tabplay~];
#X obj 473 235 print [soundfiler];
#X msg 473 208 read \$1 samples;
#N canvas 0 50 450 250 (subpatch) 0;
#X array SOUND1 100 float 2;
#X coords 0 1 100 -1 200 140 1;
#X restore 61 448 graph;
#N canvas 0 50 450 250 (subpatch) 0;
#X array SOUND2 100 float 2;
#X coords 0 1 100 -1 200 140 1;
#X restore 100 474 graph;
#X msg 493 128 read -resize /bla.mp3 SOUND1 SOUND2;
#X obj 444 49 delay 5000;
#X connect 0 0 5 0;
#X connect 0 0 24 0;
#X connect 1 0 2 0;
#X connect 1 0 16 0;
#X connect 1 0 31 0;
#X connect 2 0 0 0;
#X connect 3 0 5 0;
#X connect 4 0 3 0;
#X connect 6 0 5 1;
#X connect 7 0 6 0;
#X connect 8 0 14 0;
#X connect 9 0 15 0;
#X connect 10 0 9 0;
#X connect 10 0 12 0;
#X connect 11 0 13 0;
#X connect 12 0 8 0;
#X connect 13 0 10 0;
#X connect 14 0 7 0;
#X connect 15 0 4 0;
#X connect 16 0 5 0;
#X connect 16 0 24 0;
#X connect 17 0 19 0;
#X connect 18 0 19 1;
#X connect 18 1 22 0;
#X connect 20 0 27 0;
#X connect 20 0 22 0;
#X connect 21 0 5 0;
#X connect 21 0 24 0;
#X connect 22 0 17 0;
#X connect 22 0 18 0;
#X connect 22 0 25 0;
#X connect 23 0 30 0;
#X connect 27 0 26 0;
#X connect 30 0 20 0;
#X connect 31 0 21 0;
#X connect 31 0 23 0;
