#N canvas 840 1459 930 984 12;
#X obj 338 66 loadbang;
#X obj 243 295 dac~;
#X msg 418 196 1;
#X obj 418 156 delay 100;
#X obj 338 108 metro 10000;
#X msg 252 199 open /sounds/bla.mp3;
#X obj 252 240 readsf~ 2;
#X obj 338 294 print restart song !;
#X connect 0 0 4 0;
#X connect 2 0 6 0;
#X connect 3 0 2 0;
#X connect 4 0 3 0;
#X connect 4 0 5 0;
#X connect 4 0 7 0;
#X connect 5 0 6 0;
#X connect 6 0 1 0;
#X connect 6 1 1 1;
