#N canvas 872 287 688 561 12;
#N canvas 594 44 923 984 vosimchoir 1;
#X obj 103 219 tgl 13 1 empty empty empty 0 -6 0 8 #fcfcfc #000000
#000000 1 1;
#X obj 103 202 tgl 13 1 empty empty empty 0 -6 0 8 #fcfcfc #000000
#000000 0 1;
#X obj 103 185 tgl 13 1 empty empty empty 0 -6 0 8 #fcfcfc #000000
#000000 0 1;
#X obj 103 168 tgl 13 1 empty empty empty 0 -6 0 8 #fcfcfc #000000
#000000 0 1;
#X obj 103 151 tgl 13 1 empty empty empty 0 -6 0 8 #fcfcfc #000000
#000000 1 1;
#X obj 103 134 tgl 13 1 empty empty empty 0 -6 0 8 #fcfcfc #000000
#000000 0 1;
#X obj 103 117 tgl 13 1 empty empty empty 0 -6 0 8 #fcfcfc #000000
#000000 0 1;
#X obj 119 212 tgl 13 1 empty empty empty 0 -6 0 8 #a0a0a0 #000000
#000000 1 1;
#X obj 119 193 tgl 13 1 empty empty empty 0 -6 0 8 #a0a0a0 #000000
#000000 1 1;
#X obj 119 159 tgl 13 1 empty empty empty 0 -6 0 8 #a0a0a0 #000000
#000000 0 1;
#X obj 119 141 tgl 13 1 empty empty empty 0 -6 0 8 #a0a0a0 #000000
#000000 1 1;
#X obj 119 123 tgl 13 1 empty empty empty 0 -6 0 8 #a0a0a0 #000000
#000000 0 1;
#N canvas 36 470 1143 398 notescalefilter12 0;
#X obj 139 40 inlet;
#X obj 228 93 inlet;
#X obj 297 104 inlet;
#X obj 395 106 inlet;
#X obj 497 109 inlet;
#X obj 1397 320 outlet;
#X obj 181 148 mod 12;
#X obj 181 171 == 0;
#X obj 194 227 +;
#X obj 152 124 t f f;
#X obj 209 193 *;
#X obj 291 154 mod 12;
#X obj 304 233 +;
#X obj 319 199 *;
#X obj 291 176 == 1;
#X obj 395 155 mod 12;
#X obj 408 234 +;
#X obj 423 200 *;
#X obj 395 176 == 2;
#X obj 228 124 == 0;
#X obj 312 129 == 0;
#X obj 413 130 == 0;
#X obj 500 157 mod 12;
#X obj 513 236 +;
#X obj 528 202 *;
#X obj 518 132 == 0;
#X obj 247 198 t f f;
#X obj 351 201 t f f;
#X obj 456 203 t f f;
#X obj 608 108 inlet;
#X obj 611 156 mod 12;
#X obj 624 235 +;
#X obj 639 201 *;
#X obj 629 131 == 0;
#X obj 567 202 t f f;
#X obj 500 178 == 3;
#X obj 611 177 == 4;
#X obj 723 103 inlet;
#X obj 828 105 inlet;
#X obj 930 108 inlet;
#X obj 717 153 mod 12;
#X obj 730 232 +;
#X obj 745 198 *;
#X obj 828 154 mod 12;
#X obj 841 233 +;
#X obj 856 199 *;
#X obj 738 128 == 0;
#X obj 846 129 == 0;
#X obj 933 156 mod 12;
#X obj 946 235 +;
#X obj 961 201 *;
#X obj 951 131 == 0;
#X obj 673 197 t f f;
#X obj 784 200 t f f;
#X obj 889 202 t f f;
#X obj 1041 107 inlet;
#X obj 1044 155 mod 12;
#X obj 1057 234 +;
#X obj 1072 200 *;
#X obj 1062 130 == 0;
#X obj 1000 201 t f f;
#X obj 717 175 == 5;
#X obj 827 175 == 6;
#X obj 933 177 == 7;
#X obj 1044 176 == 8;
#X obj 1154 106 inlet;
#X obj 1259 108 inlet;
#X obj 1361 111 inlet;
#X obj 1148 156 mod 12;
#X obj 1161 235 +;
#X obj 1176 201 *;
#X obj 1259 157 mod 12;
#X obj 1272 236 +;
#X obj 1287 202 *;
#X obj 1169 131 == 0;
#X obj 1277 132 == 0;
#X obj 1364 159 mod 12;
#X obj 1377 238 +;
#X obj 1392 204 *;
#X obj 1382 134 == 0;
#X obj 1104 200 t f f;
#X obj 1215 203 t f f;
#X obj 1320 205 t f f;
#X obj 1148 178 == 9;
#X obj 1259 178 == 10;
#X obj 1364 180 == 11;
#X floatatom 187 278 5 0 0 0 - - - 0;
#X connect 0 0 9 0;
#X connect 1 0 19 0;
#X connect 2 0 20 0;
#X connect 3 0 21 0;
#X connect 4 0 25 0;
#X connect 6 0 7 0;
#X connect 7 0 10 0;
#X connect 8 0 26 0;
#X connect 8 0 86 0;
#X connect 9 0 8 0;
#X connect 9 1 6 0;
#X connect 10 0 8 1;
#X connect 11 0 14 0;
#X connect 12 0 27 0;
#X connect 13 0 12 1;
#X connect 14 0 13 0;
#X connect 15 0 18 0;
#X connect 16 0 28 0;
#X connect 17 0 16 1;
#X connect 18 0 17 0;
#X connect 19 0 10 1;
#X connect 20 0 13 1;
#X connect 21 0 17 1;
#X connect 22 0 35 0;
#X connect 23 0 34 0;
#X connect 24 0 23 1;
#X connect 25 0 24 1;
#X connect 26 0 12 0;
#X connect 26 1 11 0;
#X connect 27 0 16 0;
#X connect 27 1 15 0;
#X connect 28 0 23 0;
#X connect 28 1 22 0;
#X connect 29 0 33 0;
#X connect 30 0 36 0;
#X connect 31 0 52 0;
#X connect 32 0 31 1;
#X connect 33 0 32 1;
#X connect 34 0 31 0;
#X connect 34 1 30 0;
#X connect 35 0 24 0;
#X connect 36 0 32 0;
#X connect 37 0 46 0;
#X connect 38 0 47 0;
#X connect 39 0 51 0;
#X connect 40 0 61 0;
#X connect 41 0 53 0;
#X connect 42 0 41 1;
#X connect 43 0 62 0;
#X connect 44 0 54 0;
#X connect 45 0 44 1;
#X connect 46 0 42 1;
#X connect 47 0 45 1;
#X connect 48 0 63 0;
#X connect 49 0 60 0;
#X connect 50 0 49 1;
#X connect 51 0 50 1;
#X connect 52 0 41 0;
#X connect 52 1 40 0;
#X connect 53 0 44 0;
#X connect 53 1 43 0;
#X connect 54 0 49 0;
#X connect 54 1 48 0;
#X connect 55 0 59 0;
#X connect 56 0 64 0;
#X connect 57 0 80 0;
#X connect 58 0 57 1;
#X connect 59 0 58 1;
#X connect 60 0 57 0;
#X connect 60 1 56 0;
#X connect 61 0 42 0;
#X connect 62 0 45 0;
#X connect 63 0 50 0;
#X connect 64 0 58 0;
#X connect 65 0 74 0;
#X connect 66 0 75 0;
#X connect 67 0 79 0;
#X connect 68 0 83 0;
#X connect 69 0 81 0;
#X connect 70 0 69 1;
#X connect 71 0 84 0;
#X connect 72 0 82 0;
#X connect 73 0 72 1;
#X connect 74 0 70 1;
#X connect 75 0 73 1;
#X connect 76 0 85 0;
#X connect 77 0 5 0;
#X connect 78 0 77 1;
#X connect 79 0 78 1;
#X connect 80 0 69 0;
#X connect 80 1 68 0;
#X connect 81 0 72 0;
#X connect 81 1 71 0;
#X connect 82 0 77 0;
#X connect 82 1 76 0;
#X connect 83 0 70 0;
#X connect 84 0 73 0;
#X connect 85 0 78 0;
#X restore -169 193 pd notescalefilter12;
#X obj 416 360 int;
#X obj 485 381 pack f f f f f f f f f f f f;
#X obj 135 121 bng 15 250 50 0 empty empty u 5 8 0 10 #fcfcfc #000000
#000000;
#X msg 449 488 \$2 \$3 \$4 \$5 \$6 \$7 \$8 \$9 \$10 \$11 \$12 \$1;
#X msg 447 449 \$12 \$1 \$2 \$3 \$4 \$5 \$6 \$7 \$8 \$9 \$10 \$11;
#X obj 135 140 bng 15 250 50 0 empty empty d 5 8 0 10 #fcfcfc #000000
#000000;
#X obj 388 332 t b b;
#X obj 427 411 list;
#X obj 482 421 list;
#X obj 437 327 t b b;
#N canvas 631 160 1005 915 scalename 0;
#X obj 336 17 inlet;
#X obj 256 878 outlet;
#X msg 275 159 symbol ionian;
#X msg 336 200 symbol lydian;
#X msg 402 247 symbol dorian;
#X obj 334 46 select 0 1 2 3 4 5 6 7 8 9 10 11 12 13 14 15 16 17;
#X msg 565 450 symbol folk;
#X msg 583 477 symbol japan;
#X msg 614 529 symbol gypsy;
#X msg 676 615 symbol whole;
#X msg 658 590 symbol flamenc;
#X msg 304 180 symbol aeolian;
#X msg 596 504 symbol gamelan;
#X msg 649 561 symbol arabian;
#X msg 437 269 symbol locrian;
#X msg 469 292 symbol phrygian;
#X msg 377 224 symbol mixolydian;
#X msg 503 343 symbol blumaj;
#X msg 520 369 symbol blumin;
#X msg 552 422 symbol pentamin;
#X msg 534 397 symbol pentamaj;
#X msg 760 699 symbol chromatic;
#X connect 0 0 5 0;
#X connect 2 0 1 0;
#X connect 3 0 1 0;
#X connect 4 0 1 0;
#X connect 5 0 2 0;
#X connect 5 1 11 0;
#X connect 5 2 3 0;
#X connect 5 3 16 0;
#X connect 5 4 4 0;
#X connect 5 5 14 0;
#X connect 5 6 15 0;
#X connect 5 7 17 0;
#X connect 5 8 18 0;
#X connect 5 9 20 0;
#X connect 5 10 19 0;
#X connect 5 11 6 0;
#X connect 5 12 7 0;
#X connect 5 13 12 0;
#X connect 5 14 8 0;
#X connect 5 15 13 0;
#X connect 5 16 10 0;
#X connect 5 17 9 0;
#X connect 5 18 21 0;
#X connect 6 0 1 0;
#X connect 7 0 1 0;
#X connect 8 0 1 0;
#X connect 9 0 1 0;
#X connect 10 0 1 0;
#X connect 11 0 1 0;
#X connect 12 0 1 0;
#X connect 13 0 1 0;
#X connect 14 0 1 0;
#X connect 15 0 1 0;
#X connect 16 0 1 0;
#X connect 17 0 1 0;
#X connect 18 0 1 0;
#X connect 19 0 1 0;
#X connect 20 0 1 0;
#X connect 21 0 1 0;
#X restore 85 -92 pd scalename;
#N canvas 115 132 701 818 modepreset 0;
#X obj 42 25 inlet;
#X text 50 1 type;
#X obj 55 1036 outlet;
#X obj 38 903 list split;
#X obj 36 1000 list trim;
#X obj 29 963 list prepend;
#X obj 67 98 f;
#X text 176 273 ionian;
#X text 207 307 aeolian;
#X text 221 343 lydian;
#X text 234 376 mixolydian;
#X text 261 407 dorian;
#X text 272 433 locrian;
#X text 284 468 phrygian;
#X text 466 814 chromatic;
#X text 305 495 blues major;
#X text 318 521 blues minor;
#X text 328 553 pentatonic major;
#X text 339 579 pentatonic minor;
#X text 350 602 folk;
#X text 365 630 japanese;
#X text 380 654 gamelan;
#X text 390 678 gypsy;
#X text 410 707 arabian;
#X text 433 743 flamenco;
#X obj 62 178 select 0 1 2 3 4 5 6 7 8 9 10 11 12 13 14 15 16 17;
#X text 453 769 wholetone;
#X text 217 243 modes for 1 octave;
#X msg 280 742 1 1 0 0 1 1 0 1 1 0 1 0;
#X msg 300 765 1 0 1 0 1 0 1 0 1 0 1 0;
#X msg 317 812 1 1 1 1 1 1 1 1 1 1 1 1;
#X msg 258 710 1 1 0 0 1 1 0 1 1 0 0 1;
#X msg 81 377 1 0 1 0 1 1 0 1 0 1 1 0;
#X msg 21 276 1 0 1 0 1 1 0 1 0 1 0 1;
#X msg 50 308 1 0 1 1 0 1 0 1 1 0 1 0;
#X msg 64 343 1 0 1 0 1 0 1 1 0 1 0 1;
#X msg 103 404 1 0 1 1 0 1 0 1 0 1 1 0;
#X msg 120 433 1 1 0 1 0 1 1 0 1 0 1 0;
#X msg 134 467 1 1 0 1 0 1 0 1 1 0 1 0;
#X msg 157 495 1 0 0 1 1 0 0 1 0 1 1 0;
#X msg 168 521 1 0 0 1 0 1 1 1 0 0 1 0;
#X msg 178 551 1 0 1 0 1 0 0 1 0 1 0 0;
#X msg 201 606 1 1 0 1 1 1 0 1 1 0 1 0;
#X msg 215 628 1 1 0 1 1 1 0 1 1 0 1 0;
#X msg 229 656 1 1 0 1 0 0 0 1 1 0 0 0;
#X msg 241 679 1 0 1 1 0 0 1 1 1 0 0 1;
#X msg 194 579 1 0 0 1 0 1 0 1 0 0 1 0;
#X connect 0 0 6 0;
#X connect 3 0 5 0;
#X connect 3 1 5 1;
#X connect 4 0 2 0;
#X connect 5 0 4 0;
#X connect 6 0 25 0;
#X connect 25 0 33 0;
#X connect 25 1 34 0;
#X connect 25 2 35 0;
#X connect 25 3 32 0;
#X connect 25 4 36 0;
#X connect 25 5 37 0;
#X connect 25 6 38 0;
#X connect 25 7 39 0;
#X connect 25 8 40 0;
#X connect 25 9 41 0;
#X connect 25 10 46 0;
#X connect 25 11 42 0;
#X connect 25 12 43 0;
#X connect 25 13 44 0;
#X connect 25 14 45 0;
#X connect 25 15 31 0;
#X connect 25 16 28 0;
#X connect 25 17 29 0;
#X connect 25 18 30 0;
#X connect 28 0 3 0;
#X connect 29 0 3 0;
#X connect 30 0 3 0;
#X connect 31 0 3 0;
#X connect 32 0 3 0;
#X connect 33 0 3 0;
#X connect 34 0 3 0;
#X connect 35 0 3 0;
#X connect 36 0 3 0;
#X connect 37 0 3 0;
#X connect 38 0 3 0;
#X connect 39 0 3 0;
#X connect 40 0 3 0;
#X connect 41 0 3 0;
#X connect 42 0 3 0;
#X connect 43 0 3 0;
#X connect 44 0 3 0;
#X connect 45 0 3 0;
#X connect 46 0 3 0;
#X restore 322 -122 pd modepreset;
#X obj 326 -86 unpack f f f f f f f f f f f f f;
#X obj 148 222 hsl 60 15 0 18 0 1 empty empty gamelan 3 8 0 10 #fcfcfc
#fcfcfc #606060 4400 0;
#X msg 126 54 label \$1;
#X obj 59 -137 int;
#X obj -204 -87 metro 200;
#X obj -191 54 select 1;
#X msg -207 -115 bang;
#X obj -150 126 random 48;
#X obj -165 159 + 36;
#X obj -107 411 + 0;
#X obj -265 200 int;
#X obj -232 197 + 1;
#X obj -222 226 mod 8;
#X obj -262 369 pack f f;
#X obj -266 404 route 0 1 2 3 4 5 6 7;
#X obj -83 459 + 4;
#X obj 145 174 nbx 7 14 0 1e+07 0 1 empty empty seed -25 7 0 10 #fcfcfc
#000000 #000000 45865 256;
#X obj -243 979 outlet~;
#X obj -177 980 outlet~;
#X obj -207 -140 loadbang;
#X obj -48 510 + 8;
#X obj -23 571 + 12;
#X obj 27 635 + 16;
#X obj 58 682 + 20;
#X obj 93 733 + 24;
#X obj 118 794 + 28;
#X text 423 94 4/2022 martin brinkmann;
#X obj 153 138 nbx 2 14 12 48 0 1 empty empty empty 0 -8 0 10 #fcfcfc
#000000 #000000 24 256;
#X obj 153 121 nbx 2 14 12 72 0 1 empty empty empty 0 -8 0 10 #fcfcfc
#000000 #000000 36 256;
#X obj 140 160 hsl 64 10 1 0 0 1 empty empty dens 2 5 0 10 #fcfcfc
#000000 #000000 3700 1;
#X obj -193 23 > 9000;
#X obj -97 53 + 7000;
#X msg -109 95 seed \$1;
#X obj -201 343 +;
#X obj -125 256 random 1000;
#X obj -125 281 - 500;
#X obj -64 227 + 0.1;
#X msg -130 228 seed \$1;
#X text 52 546 8 voices;
#X text -274 250 roundrobin;
#X text -98 -44 randomtrigger;
#X text -59 288 slight random detune;
#X obj -179 94 t b b b;
#X obj 140 195 hsl 64 10 0 1 0 1 empty empty detune 2 5 0 10 #fcfcfc
#000000 #000000 1200 1;
#X obj -131 331 *;
#X obj -128 308 / 2000;
#N canvas 224 19 1538 931 vosimtone 0;
#X obj 245 612 line~;
#X msg 228 574 \$1 \$2;
#X obj 215 550 pack f f;
#X obj 402 357 random 5000;
#X obj 403 391 + 2000;
#X text 404 326 random env len;
#X obj 378 571 mtof;
#X obj 165 560 mtof;
#X obj 209 526 mtof;
#X obj 53 512 +;
#X obj 196 489 +;
#X obj 234 416 random 64;
#X obj 140 428 random 64;
#X obj 234 454 *;
#X obj 144 468 > 31;
#X text 46 433 start ofst;
#X obj 144 493 * 2;
#X obj 155 516 - 1;
#X text 241 387 amt/dir;
#X obj 322 844 *~;
#X obj 421 493 / 3;
#X msg 508 736 0 \, 1 \$1 \, 0 \$1 \$2;
#X obj 500 658 pack f f;
#X obj 435 449 t f f;
#X obj 478 796 vline~;
#X obj 242 147 inlet;
#X obj 234 986 outlet~;
#X obj 496 165 inlet;
#X text 504 137 seed;
#X obj 403 241 + 1;
#X msg 364 287 seed \$1;
#X msg 148 312 seed \$1;
#X obj 449 248 + 2;
#X msg 452 290 seed \$1;
#X text 252 116 pitch (triggers env as well);
#X obj 623 302 delay;
#X obj 530 379 t b f;
#X obj 169 205 spigot 1;
#X obj 207 244 t f b b f b;
#X msg 135 153 0;
#X msg 174 153 1;
#N canvas 459 165 1095 756 vosim_aa 0;
#X text 404 89 8 times oversampled \, i hope the pitch is right...
;
#X obj 46 640 outlet~;
#X obj 48 537 *~ 0.125;
#X obj 48 560 rzero~ -1;
#X obj 48 583 rzero~ -1;
#X obj 48 606 rzero~ -1;
#X obj 47 411 *~ 0.2368;
#X obj 48 457 *~ 0.06261;
#X obj 47 434 rpole~ 0.76319;
#X obj 47 480 cpole~ 0.85223 0.20194;
#X obj 46 508 cpole~ 0.85223 -0.2019;
#X text 169 451 from pd docs modified for 8 times oversampling;
#X obj 385 108 block~ 64 1 8;
#X obj 139 111 phasor~;
#X obj 206 230 *~ -1;
#X obj 209 259 +~ 1;
#X obj 56 197 phasor~;
#X obj 88 236 samphold~;
#X obj 66 259 -~;
#X obj 64 285 wrap~;
#X obj 83 354 *~;
#X obj 63 317 cos~;
#X obj 17 57 inlet~;
#X obj 142 59 inlet~;
#X connect 2 0 3 0;
#X connect 3 0 4 0;
#X connect 4 0 5 0;
#X connect 5 0 1 0;
#X connect 6 0 8 0;
#X connect 7 0 9 0;
#X connect 8 0 7 0;
#X connect 9 0 10 0;
#X connect 9 1 10 1;
#X connect 10 0 2 0;
#X connect 13 0 14 0;
#X connect 13 0 17 1;
#X connect 14 0 15 0;
#X connect 15 0 20 1;
#X connect 16 0 17 0;
#X connect 16 0 18 0;
#X connect 17 0 18 1;
#X connect 18 0 19 0;
#X connect 19 0 21 0;
#X connect 20 0 6 0;
#X connect 21 0 20 0;
#X connect 22 0 16 0;
#X connect 23 0 13 0;
#X restore 244 686 pd vosim_aa;
#X text 254 710 vosim (antialiased);
#N canvas 0 0 450 300 pan1 0;
#X obj 297 51 inlet~;
#X obj 224 229 outlet~;
#X obj 336 218 outlet~;
#X obj 251 149 *~;
#X obj 323 154 *~;
#X obj 120 15 inlet;
#X obj 148 46 clip 0 1;
#X obj 208 75 * -1;
#X obj 204 105 + 1;
#X obj 314 123 * -1;
#X connect 0 0 3 0;
#X connect 0 0 4 1;
#X connect 3 0 1 0;
#X connect 4 0 2 0;
#X connect 5 0 6 0;
#X connect 6 0 7 0;
#X connect 7 0 8 0;
#X connect 7 0 9 0;
#X connect 8 0 3 1;
#X connect 9 0 4 0;
#X restore 260 944 pd pan1;
#X obj 206 910 + 0.5;
#X obj 325 988 outlet~;
#X msg 169 778 seed \$1;
#X obj 169 808 random 100;
#X obj 173 745 + 3;
#X obj 170 832 - 50;
#X obj 171 864 / 300;
#X text 67 889 slight random pan;
#X obj 364 757 osc~;
#X obj 361 788 *~;
#X obj 385 844 +~;
#X obj 622 634 mtof;
#X obj 630 565 random 100;
#X obj 629 598 / 10;
#X obj 365 915 bp~ 1;
#X obj 533 534 random 1000;
#X text 576 631 lfo;
#X obj 598 823 random 1000;
#X obj 409 669 mtof;
#X msg 646 532 seed \$1;
#X obj 650 499 + 3.1;
#X msg 577 496 seed \$1;
#X obj 590 461 + 3.2;
#X msg 664 787 seed \$1;
#X obj 668 754 + 3.3;
#X obj 383 639 + 10;
#X obj 589 851 / 2000;
#X obj 590 872 + 0.5;
#X obj 524 562 / 700;
#X obj 740 151 inlet;
#X text 742 128 filter;
#X obj 402 877 snapshot~;
#X obj 435 846 metro 10;
#X obj 411 794 loadbang;
#X connect 0 0 41 0;
#X connect 1 0 0 0;
#X connect 2 0 1 0;
#X connect 3 0 4 0;
#X connect 4 0 2 1;
#X connect 4 0 23 0;
#X connect 4 0 36 0;
#X connect 6 0 41 1;
#X connect 7 0 0 0;
#X connect 8 0 2 0;
#X connect 9 0 7 0;
#X connect 10 0 8 0;
#X connect 11 0 13 0;
#X connect 12 0 9 1;
#X connect 12 0 14 0;
#X connect 13 0 10 1;
#X connect 14 0 16 0;
#X connect 16 0 17 0;
#X connect 17 0 13 1;
#X connect 19 0 58 0;
#X connect 20 0 22 0;
#X connect 21 0 24 0;
#X connect 22 0 21 0;
#X connect 23 0 20 0;
#X connect 23 1 22 1;
#X connect 24 0 19 1;
#X connect 25 0 37 0;
#X connect 27 0 29 0;
#X connect 27 0 31 0;
#X connect 27 0 32 0;
#X connect 27 0 48 0;
#X connect 27 0 68 0;
#X connect 27 0 66 0;
#X connect 27 0 64 0;
#X connect 29 0 30 0;
#X connect 30 0 11 0;
#X connect 31 0 12 0;
#X connect 32 0 33 0;
#X connect 33 0 3 0;
#X connect 35 0 40 0;
#X connect 36 0 35 0;
#X connect 36 1 35 1;
#X connect 37 0 38 0;
#X connect 38 0 10 0;
#X connect 38 1 11 0;
#X connect 38 1 3 0;
#X connect 38 2 12 0;
#X connect 38 2 47 0;
#X connect 38 3 6 0;
#X connect 38 3 9 0;
#X connect 38 3 69 0;
#X connect 38 4 39 0;
#X connect 38 4 56 0;
#X connect 38 4 59 0;
#X connect 38 4 61 0;
#X connect 39 0 37 1;
#X connect 40 0 37 1;
#X connect 41 0 19 0;
#X connect 43 0 26 0;
#X connect 43 1 45 0;
#X connect 44 0 43 0;
#X connect 46 0 47 0;
#X connect 47 0 49 0;
#X connect 48 0 46 0;
#X connect 49 0 50 0;
#X connect 50 0 44 0;
#X connect 52 0 53 0;
#X connect 53 0 54 0;
#X connect 54 0 75 0;
#X connect 55 0 53 1;
#X connect 56 0 57 0;
#X connect 57 0 55 0;
#X connect 58 0 43 1;
#X connect 59 0 72 0;
#X connect 61 0 70 0;
#X connect 62 0 54 1;
#X connect 63 0 56 0;
#X connect 64 0 63 0;
#X connect 65 0 59 0;
#X connect 66 0 65 0;
#X connect 67 0 61 0;
#X connect 68 0 67 0;
#X connect 69 0 62 0;
#X connect 70 0 71 0;
#X connect 71 0 58 2;
#X connect 72 0 52 0;
#X connect 73 0 69 1;
#X connect 75 0 58 1;
#X connect 76 0 75 0;
#X connect 77 0 76 0;
#X restore -197 443 pd vosimtone;
#X text 424 45 make random clusters/chords of vosim-tones (+filter
and lfo) on a scale. 8 voices.;
#X obj -221 923 *~ 0.9;
#X obj -146 924 *~ 0.9;
#X obj -83 15 * 2900;
#X obj 146 208 hsl 64 10 -5 15 0 1 empty empty filt 2 5 0 10 #fcfcfc
#000000 #000000 4500 1;
#N canvas 421 38 1538 931 vosimtone 1;
#X obj 245 612 line~;
#X msg 228 574 \$1 \$2;
#X obj 215 550 pack f f;
#X obj 402 357 random 5000;
#X obj 403 391 + 2000;
#X text 404 326 random env len;
#X obj 378 571 mtof;
#X obj 165 560 mtof;
#X obj 209 526 mtof;
#X obj 53 512 +;
#X obj 196 489 +;
#X obj 234 416 random 64;
#X obj 140 428 random 64;
#X obj 234 454 *;
#X obj 144 468 > 31;
#X text 46 433 start ofst;
#X obj 144 493 * 2;
#X obj 155 516 - 1;
#X text 241 387 amt/dir;
#X obj 322 844 *~;
#X obj 421 493 / 3;
#X msg 508 736 0 \, 1 \$1 \, 0 \$1 \$2;
#X obj 500 658 pack f f;
#X obj 435 449 t f f;
#X obj 478 796 vline~;
#X obj 242 147 inlet;
#X obj 234 986 outlet~;
#X obj 496 165 inlet;
#X text 504 137 seed;
#X obj 403 241 + 1;
#X msg 364 287 seed \$1;
#X msg 148 312 seed \$1;
#X obj 449 248 + 2;
#X msg 452 290 seed \$1;
#X text 252 116 pitch (triggers env as well);
#X obj 623 302 delay;
#X obj 530 379 t b f;
#X obj 169 205 spigot 1;
#X obj 207 244 t f b b f b;
#X msg 135 153 0;
#X msg 174 153 1;
#N canvas 459 165 1095 756 vosim_aa 0;
#X text 404 89 8 times oversampled \, i hope the pitch is right...
;
#X obj 46 640 outlet~;
#X obj 48 537 *~ 0.125;
#X obj 48 560 rzero~ -1;
#X obj 48 583 rzero~ -1;
#X obj 48 606 rzero~ -1;
#X obj 47 411 *~ 0.2368;
#X obj 48 457 *~ 0.06261;
#X obj 47 434 rpole~ 0.76319;
#X obj 47 480 cpole~ 0.85223 0.20194;
#X obj 46 508 cpole~ 0.85223 -0.2019;
#X text 169 451 from pd docs modified for 8 times oversampling;
#X obj 385 108 block~ 64 1 8;
#X obj 139 111 phasor~;
#X obj 206 230 *~ -1;
#X obj 209 259 +~ 1;
#X obj 56 197 phasor~;
#X obj 88 236 samphold~;
#X obj 66 259 -~;
#X obj 64 285 wrap~;
#X obj 83 354 *~;
#X obj 63 317 cos~;
#X obj 17 57 inlet~;
#X obj 142 59 inlet~;
#X connect 2 0 3 0;
#X connect 3 0 4 0;
#X connect 4 0 5 0;
#X connect 5 0 1 0;
#X connect 6 0 8 0;
#X connect 7 0 9 0;
#X connect 8 0 7 0;
#X connect 9 0 10 0;
#X connect 9 1 10 1;
#X connect 10 0 2 0;
#X connect 13 0 14 0;
#X connect 13 0 17 1;
#X connect 14 0 15 0;
#X connect 15 0 20 1;
#X connect 16 0 17 0;
#X connect 16 0 18 0;
#X connect 17 0 18 1;
#X connect 18 0 19 0;
#X connect 19 0 21 0;
#X connect 20 0 6 0;
#X connect 21 0 20 0;
#X connect 22 0 16 0;
#X connect 23 0 13 0;
#X restore 244 686 pd vosim_aa;
#X text 254 710 vosim (antialiased);
#N canvas 0 0 450 300 pan1 0;
#X obj 297 51 inlet~;
#X obj 224 229 outlet~;
#X obj 336 218 outlet~;
#X obj 251 149 *~;
#X obj 323 154 *~;
#X obj 120 15 inlet;
#X obj 148 46 clip 0 1;
#X obj 208 75 * -1;
#X obj 204 105 + 1;
#X obj 314 123 * -1;
#X connect 0 0 3 0;
#X connect 0 0 4 1;
#X connect 3 0 1 0;
#X connect 4 0 2 0;
#X connect 5 0 6 0;
#X connect 6 0 7 0;
#X connect 7 0 8 0;
#X connect 7 0 9 0;
#X connect 8 0 3 1;
#X connect 9 0 4 0;
#X restore 260 944 pd pan1;
#X obj 206 910 + 0.5;
#X obj 325 988 outlet~;
#X msg 169 778 seed \$1;
#X obj 169 808 random 100;
#X obj 173 745 + 3;
#X obj 170 832 - 50;
#X obj 171 864 / 300;
#X text 67 889 slight random pan;
#X obj 364 757 osc~;
#X obj 361 788 *~;
#X obj 376 847 +~;
#X obj 622 634 mtof;
#X obj 630 565 random 100;
#X obj 629 598 / 10;
#X obj 343 908 bp~ 1;
#X obj 533 534 random 1000;
#X text 576 631 lfo;
#X obj 598 823 random 1000;
#X obj 409 669 mtof;
#X msg 646 532 seed \$1;
#X obj 650 499 + 3.1;
#X msg 577 496 seed \$1;
#X obj 590 461 + 3.2;
#X msg 664 787 seed \$1;
#X obj 668 754 + 3.3;
#X obj 383 639 + 10;
#X obj 589 851 / 2000;
#X obj 590 872 + 0.5;
#X obj 524 562 / 700;
#X obj 740 151 inlet;
#X text 742 128 filter;
#X obj 445 875 metro 10;
#X obj 421 823 loadbang;
#X obj 445 900 snapshot~;
#X connect 0 0 41 0;
#X connect 1 0 0 0;
#X connect 2 0 1 0;
#X connect 3 0 4 0;
#X connect 4 0 2 1;
#X connect 4 0 23 0;
#X connect 4 0 36 0;
#X connect 6 0 41 1;
#X connect 7 0 0 0;
#X connect 8 0 2 0;
#X connect 9 0 7 0;
#X connect 10 0 8 0;
#X connect 11 0 13 0;
#X connect 12 0 9 1;
#X connect 12 0 14 0;
#X connect 13 0 10 1;
#X connect 14 0 16 0;
#X connect 16 0 17 0;
#X connect 17 0 13 1;
#X connect 19 0 58 0;
#X connect 20 0 22 0;
#X connect 21 0 24 0;
#X connect 22 0 21 0;
#X connect 23 0 20 0;
#X connect 23 1 22 1;
#X connect 24 0 19 1;
#X connect 25 0 37 0;
#X connect 27 0 29 0;
#X connect 27 0 31 0;
#X connect 27 0 32 0;
#X connect 27 0 48 0;
#X connect 27 0 68 0;
#X connect 27 0 66 0;
#X connect 27 0 64 0;
#X connect 29 0 30 0;
#X connect 30 0 11 0;
#X connect 31 0 12 0;
#X connect 32 0 33 0;
#X connect 33 0 3 0;
#X connect 35 0 40 0;
#X connect 36 0 35 0;
#X connect 36 1 35 1;
#X connect 37 0 38 0;
#X connect 38 0 10 0;
#X connect 38 1 11 0;
#X connect 38 1 3 0;
#X connect 38 2 12 0;
#X connect 38 2 47 0;
#X connect 38 3 6 0;
#X connect 38 3 9 0;
#X connect 38 3 69 0;
#X connect 38 4 39 0;
#X connect 38 4 56 0;
#X connect 38 4 59 0;
#X connect 38 4 61 0;
#X connect 39 0 37 1;
#X connect 40 0 37 1;
#X connect 41 0 19 0;
#X connect 43 0 26 0;
#X connect 43 1 45 0;
#X connect 44 0 43 0;
#X connect 46 0 47 0;
#X connect 47 0 49 0;
#X connect 48 0 46 0;
#X connect 49 0 50 0;
#X connect 50 0 44 0;
#X connect 52 0 53 0;
#X connect 53 0 54 0;
#X connect 54 0 77 0;
#X connect 55 0 53 1;
#X connect 56 0 57 0;
#X connect 57 0 55 0;
#X connect 58 0 43 1;
#X connect 59 0 72 0;
#X connect 61 0 70 0;
#X connect 62 0 54 1;
#X connect 63 0 56 0;
#X connect 64 0 63 0;
#X connect 65 0 59 0;
#X connect 66 0 65 0;
#X connect 67 0 61 0;
#X connect 68 0 67 0;
#X connect 69 0 62 0;
#X connect 70 0 71 0;
#X connect 71 0 58 2;
#X connect 72 0 52 0;
#X connect 73 0 69 1;
#X connect 75 0 77 0;
#X connect 76 0 75 0;
#X connect 77 0 58 1;
#X restore -166 490 pd vosimtone;
#N canvas 421 38 1538 931 vosimtone 0;
#X obj 245 612 line~;
#X msg 228 574 \$1 \$2;
#X obj 215 550 pack f f;
#X obj 402 357 random 5000;
#X obj 403 391 + 2000;
#X text 404 326 random env len;
#X obj 378 571 mtof;
#X obj 165 560 mtof;
#X obj 209 526 mtof;
#X obj 53 512 +;
#X obj 196 489 +;
#X obj 234 416 random 64;
#X obj 140 428 random 64;
#X obj 234 454 *;
#X obj 144 468 > 31;
#X text 46 433 start ofst;
#X obj 144 493 * 2;
#X obj 155 516 - 1;
#X text 241 387 amt/dir;
#X obj 322 844 *~;
#X obj 421 493 / 3;
#X msg 508 736 0 \, 1 \$1 \, 0 \$1 \$2;
#X obj 500 658 pack f f;
#X obj 435 449 t f f;
#X obj 478 796 vline~;
#X obj 242 147 inlet;
#X obj 234 986 outlet~;
#X obj 496 165 inlet;
#X text 504 137 seed;
#X obj 403 241 + 1;
#X msg 364 287 seed \$1;
#X msg 148 312 seed \$1;
#X obj 449 248 + 2;
#X msg 452 290 seed \$1;
#X text 252 116 pitch (triggers env as well);
#X obj 623 302 delay;
#X obj 530 379 t b f;
#X obj 169 205 spigot 1;
#X obj 207 244 t f b b f b;
#X msg 135 153 0;
#X msg 174 153 1;
#N canvas 459 165 1095 756 vosim_aa 0;
#X text 404 89 8 times oversampled \, i hope the pitch is right...
;
#X obj 46 640 outlet~;
#X obj 48 537 *~ 0.125;
#X obj 48 560 rzero~ -1;
#X obj 48 583 rzero~ -1;
#X obj 48 606 rzero~ -1;
#X obj 47 411 *~ 0.2368;
#X obj 48 457 *~ 0.06261;
#X obj 47 434 rpole~ 0.76319;
#X obj 47 480 cpole~ 0.85223 0.20194;
#X obj 46 508 cpole~ 0.85223 -0.2019;
#X text 169 451 from pd docs modified for 8 times oversampling;
#X obj 385 108 block~ 64 1 8;
#X obj 139 111 phasor~;
#X obj 206 230 *~ -1;
#X obj 209 259 +~ 1;
#X obj 56 197 phasor~;
#X obj 88 236 samphold~;
#X obj 66 259 -~;
#X obj 64 285 wrap~;
#X obj 83 354 *~;
#X obj 63 317 cos~;
#X obj 17 57 inlet~;
#X obj 142 59 inlet~;
#X connect 2 0 3 0;
#X connect 3 0 4 0;
#X connect 4 0 5 0;
#X connect 5 0 1 0;
#X connect 6 0 8 0;
#X connect 7 0 9 0;
#X connect 8 0 7 0;
#X connect 9 0 10 0;
#X connect 9 1 10 1;
#X connect 10 0 2 0;
#X connect 13 0 14 0;
#X connect 13 0 17 1;
#X connect 14 0 15 0;
#X connect 15 0 20 1;
#X connect 16 0 17 0;
#X connect 16 0 18 0;
#X connect 17 0 18 1;
#X connect 18 0 19 0;
#X connect 19 0 21 0;
#X connect 20 0 6 0;
#X connect 21 0 20 0;
#X connect 22 0 16 0;
#X connect 23 0 13 0;
#X restore 244 686 pd vosim_aa;
#X text 254 710 vosim (antialiased);
#N canvas 0 0 450 300 pan1 0;
#X obj 297 51 inlet~;
#X obj 224 229 outlet~;
#X obj 336 218 outlet~;
#X obj 251 149 *~;
#X obj 323 154 *~;
#X obj 120 15 inlet;
#X obj 148 46 clip 0 1;
#X obj 208 75 * -1;
#X obj 204 105 + 1;
#X obj 314 123 * -1;
#X connect 0 0 3 0;
#X connect 0 0 4 1;
#X connect 3 0 1 0;
#X connect 4 0 2 0;
#X connect 5 0 6 0;
#X connect 6 0 7 0;
#X connect 7 0 8 0;
#X connect 7 0 9 0;
#X connect 8 0 3 1;
#X connect 9 0 4 0;
#X restore 260 944 pd pan1;
#X obj 206 910 + 0.5;
#X obj 325 988 outlet~;
#X msg 169 778 seed \$1;
#X obj 169 808 random 100;
#X obj 173 745 + 3;
#X obj 170 832 - 50;
#X obj 171 864 / 300;
#X text 67 889 slight random pan;
#X obj 364 757 osc~;
#X obj 361 788 *~;
#X obj 384 869 +~;
#X obj 622 634 mtof;
#X obj 630 565 random 100;
#X obj 629 598 / 10;
#X obj 343 908 bp~ 1;
#X obj 533 534 random 1000;
#X text 576 631 lfo;
#X obj 598 823 random 1000;
#X obj 409 669 mtof;
#X msg 646 532 seed \$1;
#X obj 650 499 + 3.1;
#X msg 577 496 seed \$1;
#X obj 590 461 + 3.2;
#X msg 664 787 seed \$1;
#X obj 668 754 + 3.3;
#X obj 383 639 + 10;
#X obj 589 851 / 2000;
#X obj 590 872 + 0.5;
#X obj 524 562 / 700;
#X obj 740 151 inlet;
#X text 742 128 filter;
#X connect 0 0 41 0;
#X connect 1 0 0 0;
#X connect 2 0 1 0;
#X connect 3 0 4 0;
#X connect 4 0 2 1;
#X connect 4 0 23 0;
#X connect 4 0 36 0;
#X connect 6 0 41 1;
#X connect 7 0 0 0;
#X connect 8 0 2 0;
#X connect 9 0 7 0;
#X connect 10 0 8 0;
#X connect 11 0 13 0;
#X connect 12 0 9 1;
#X connect 12 0 14 0;
#X connect 13 0 10 1;
#X connect 14 0 16 0;
#X connect 16 0 17 0;
#X connect 17 0 13 1;
#X connect 19 0 58 0;
#X connect 20 0 22 0;
#X connect 21 0 24 0;
#X connect 22 0 21 0;
#X connect 23 0 20 0;
#X connect 23 1 22 1;
#X connect 24 0 19 1;
#X connect 25 0 37 0;
#X connect 27 0 29 0;
#X connect 27 0 31 0;
#X connect 27 0 32 0;
#X connect 27 0 48 0;
#X connect 27 0 68 0;
#X connect 27 0 66 0;
#X connect 27 0 64 0;
#X connect 29 0 30 0;
#X connect 30 0 11 0;
#X connect 31 0 12 0;
#X connect 32 0 33 0;
#X connect 33 0 3 0;
#X connect 35 0 40 0;
#X connect 36 0 35 0;
#X connect 36 1 35 1;
#X connect 37 0 38 0;
#X connect 38 0 10 0;
#X connect 38 1 11 0;
#X connect 38 1 3 0;
#X connect 38 2 12 0;
#X connect 38 2 47 0;
#X connect 38 3 6 0;
#X connect 38 3 9 0;
#X connect 38 3 69 0;
#X connect 38 4 39 0;
#X connect 38 4 56 0;
#X connect 38 4 59 0;
#X connect 38 4 61 0;
#X connect 39 0 37 1;
#X connect 40 0 37 1;
#X connect 41 0 19 0;
#X connect 43 0 26 0;
#X connect 43 1 45 0;
#X connect 44 0 43 0;
#X connect 46 0 47 0;
#X connect 47 0 49 0;
#X connect 48 0 46 0;
#X connect 49 0 50 0;
#X connect 50 0 44 0;
#X connect 52 0 53 0;
#X connect 53 0 54 0;
#X connect 54 0 58 1;
#X connect 55 0 53 1;
#X connect 56 0 57 0;
#X connect 57 0 55 0;
#X connect 58 0 43 1;
#X connect 59 0 72 0;
#X connect 61 0 70 0;
#X connect 62 0 54 1;
#X connect 63 0 56 0;
#X connect 64 0 63 0;
#X connect 65 0 59 0;
#X connect 66 0 65 0;
#X connect 67 0 61 0;
#X connect 68 0 67 0;
#X connect 69 0 62 0;
#X connect 70 0 71 0;
#X connect 71 0 58 2;
#X connect 72 0 52 0;
#X connect 73 0 69 1;
#X restore -131 541 pd vosimtone;
#N canvas 421 38 1538 931 vosimtone 0;
#X obj 245 612 line~;
#X msg 228 574 \$1 \$2;
#X obj 215 550 pack f f;
#X obj 402 357 random 5000;
#X obj 403 391 + 2000;
#X text 404 326 random env len;
#X obj 378 571 mtof;
#X obj 165 560 mtof;
#X obj 209 526 mtof;
#X obj 53 512 +;
#X obj 196 489 +;
#X obj 234 416 random 64;
#X obj 140 428 random 64;
#X obj 234 454 *;
#X obj 144 468 > 31;
#X text 46 433 start ofst;
#X obj 144 493 * 2;
#X obj 155 516 - 1;
#X text 241 387 amt/dir;
#X obj 322 844 *~;
#X obj 421 493 / 3;
#X msg 508 736 0 \, 1 \$1 \, 0 \$1 \$2;
#X obj 500 658 pack f f;
#X obj 435 449 t f f;
#X obj 478 796 vline~;
#X obj 242 147 inlet;
#X obj 234 986 outlet~;
#X obj 496 165 inlet;
#X text 504 137 seed;
#X obj 403 241 + 1;
#X msg 364 287 seed \$1;
#X msg 148 312 seed \$1;
#X obj 449 248 + 2;
#X msg 452 290 seed \$1;
#X text 252 116 pitch (triggers env as well);
#X obj 623 302 delay;
#X obj 530 379 t b f;
#X obj 169 205 spigot 1;
#X obj 207 244 t f b b f b;
#X msg 135 153 0;
#X msg 174 153 1;
#N canvas 459 165 1095 756 vosim_aa 0;
#X text 404 89 8 times oversampled \, i hope the pitch is right...
;
#X obj 46 640 outlet~;
#X obj 48 537 *~ 0.125;
#X obj 48 560 rzero~ -1;
#X obj 48 583 rzero~ -1;
#X obj 48 606 rzero~ -1;
#X obj 47 411 *~ 0.2368;
#X obj 48 457 *~ 0.06261;
#X obj 47 434 rpole~ 0.76319;
#X obj 47 480 cpole~ 0.85223 0.20194;
#X obj 46 508 cpole~ 0.85223 -0.2019;
#X text 169 451 from pd docs modified for 8 times oversampling;
#X obj 385 108 block~ 64 1 8;
#X obj 139 111 phasor~;
#X obj 206 230 *~ -1;
#X obj 209 259 +~ 1;
#X obj 56 197 phasor~;
#X obj 88 236 samphold~;
#X obj 66 259 -~;
#X obj 64 285 wrap~;
#X obj 83 354 *~;
#X obj 63 317 cos~;
#X obj 17 57 inlet~;
#X obj 142 59 inlet~;
#X connect 2 0 3 0;
#X connect 3 0 4 0;
#X connect 4 0 5 0;
#X connect 5 0 1 0;
#X connect 6 0 8 0;
#X connect 7 0 9 0;
#X connect 8 0 7 0;
#X connect 9 0 10 0;
#X connect 9 1 10 1;
#X connect 10 0 2 0;
#X connect 13 0 14 0;
#X connect 13 0 17 1;
#X connect 14 0 15 0;
#X connect 15 0 20 1;
#X connect 16 0 17 0;
#X connect 16 0 18 0;
#X connect 17 0 18 1;
#X connect 18 0 19 0;
#X connect 19 0 21 0;
#X connect 20 0 6 0;
#X connect 21 0 20 0;
#X connect 22 0 16 0;
#X connect 23 0 13 0;
#X restore 244 686 pd vosim_aa;
#X text 254 710 vosim (antialiased);
#N canvas 0 0 450 300 pan1 0;
#X obj 297 51 inlet~;
#X obj 224 229 outlet~;
#X obj 336 218 outlet~;
#X obj 251 149 *~;
#X obj 323 154 *~;
#X obj 120 15 inlet;
#X obj 148 46 clip 0 1;
#X obj 208 75 * -1;
#X obj 204 105 + 1;
#X obj 314 123 * -1;
#X connect 0 0 3 0;
#X connect 0 0 4 1;
#X connect 3 0 1 0;
#X connect 4 0 2 0;
#X connect 5 0 6 0;
#X connect 6 0 7 0;
#X connect 7 0 8 0;
#X connect 7 0 9 0;
#X connect 8 0 3 1;
#X connect 9 0 4 0;
#X restore 260 944 pd pan1;
#X obj 206 910 + 0.5;
#X obj 325 988 outlet~;
#X msg 169 778 seed \$1;
#X obj 169 808 random 100;
#X obj 173 745 + 3;
#X obj 170 832 - 50;
#X obj 171 864 / 300;
#X text 67 889 slight random pan;
#X obj 364 757 osc~;
#X obj 361 788 *~;
#X obj 384 869 +~;
#X obj 622 634 mtof;
#X obj 630 565 random 100;
#X obj 629 598 / 10;
#X obj 343 908 bp~ 1;
#X obj 533 534 random 1000;
#X text 576 631 lfo;
#X obj 598 823 random 1000;
#X obj 409 669 mtof;
#X msg 646 532 seed \$1;
#X obj 650 499 + 3.1;
#X msg 577 496 seed \$1;
#X obj 590 461 + 3.2;
#X msg 664 787 seed \$1;
#X obj 668 754 + 3.3;
#X obj 383 639 + 10;
#X obj 589 851 / 2000;
#X obj 590 872 + 0.5;
#X obj 524 562 / 700;
#X obj 740 151 inlet;
#X text 742 128 filter;
#X connect 0 0 41 0;
#X connect 1 0 0 0;
#X connect 2 0 1 0;
#X connect 3 0 4 0;
#X connect 4 0 2 1;
#X connect 4 0 23 0;
#X connect 4 0 36 0;
#X connect 6 0 41 1;
#X connect 7 0 0 0;
#X connect 8 0 2 0;
#X connect 9 0 7 0;
#X connect 10 0 8 0;
#X connect 11 0 13 0;
#X connect 12 0 9 1;
#X connect 12 0 14 0;
#X connect 13 0 10 1;
#X connect 14 0 16 0;
#X connect 16 0 17 0;
#X connect 17 0 13 1;
#X connect 19 0 58 0;
#X connect 20 0 22 0;
#X connect 21 0 24 0;
#X connect 22 0 21 0;
#X connect 23 0 20 0;
#X connect 23 1 22 1;
#X connect 24 0 19 1;
#X connect 25 0 37 0;
#X connect 27 0 29 0;
#X connect 27 0 31 0;
#X connect 27 0 32 0;
#X connect 27 0 48 0;
#X connect 27 0 68 0;
#X connect 27 0 66 0;
#X connect 27 0 64 0;
#X connect 29 0 30 0;
#X connect 30 0 11 0;
#X connect 31 0 12 0;
#X connect 32 0 33 0;
#X connect 33 0 3 0;
#X connect 35 0 40 0;
#X connect 36 0 35 0;
#X connect 36 1 35 1;
#X connect 37 0 38 0;
#X connect 38 0 10 0;
#X connect 38 1 11 0;
#X connect 38 1 3 0;
#X connect 38 2 12 0;
#X connect 38 2 47 0;
#X connect 38 3 6 0;
#X connect 38 3 9 0;
#X connect 38 3 69 0;
#X connect 38 4 39 0;
#X connect 38 4 56 0;
#X connect 38 4 59 0;
#X connect 38 4 61 0;
#X connect 39 0 37 1;
#X connect 40 0 37 1;
#X connect 41 0 19 0;
#X connect 43 0 26 0;
#X connect 43 1 45 0;
#X connect 44 0 43 0;
#X connect 46 0 47 0;
#X connect 47 0 49 0;
#X connect 48 0 46 0;
#X connect 49 0 50 0;
#X connect 50 0 44 0;
#X connect 52 0 53 0;
#X connect 53 0 54 0;
#X connect 54 0 58 1;
#X connect 55 0 53 1;
#X connect 56 0 57 0;
#X connect 57 0 55 0;
#X connect 58 0 43 1;
#X connect 59 0 72 0;
#X connect 61 0 70 0;
#X connect 62 0 54 1;
#X connect 63 0 56 0;
#X connect 64 0 63 0;
#X connect 65 0 59 0;
#X connect 66 0 65 0;
#X connect 67 0 61 0;
#X connect 68 0 67 0;
#X connect 69 0 62 0;
#X connect 70 0 71 0;
#X connect 71 0 58 2;
#X connect 72 0 52 0;
#X connect 73 0 69 1;
#X restore -106 602 pd vosimtone;
#N canvas 421 38 1538 931 vosimtone 0;
#X obj 245 612 line~;
#X msg 228 574 \$1 \$2;
#X obj 215 550 pack f f;
#X obj 402 357 random 5000;
#X obj 403 391 + 2000;
#X text 404 326 random env len;
#X obj 378 571 mtof;
#X obj 165 560 mtof;
#X obj 209 526 mtof;
#X obj 53 512 +;
#X obj 196 489 +;
#X obj 234 416 random 64;
#X obj 140 428 random 64;
#X obj 234 454 *;
#X obj 144 468 > 31;
#X text 46 433 start ofst;
#X obj 144 493 * 2;
#X obj 155 516 - 1;
#X text 241 387 amt/dir;
#X obj 322 844 *~;
#X obj 421 493 / 3;
#X msg 508 736 0 \, 1 \$1 \, 0 \$1 \$2;
#X obj 500 658 pack f f;
#X obj 435 449 t f f;
#X obj 478 796 vline~;
#X obj 242 147 inlet;
#X obj 234 986 outlet~;
#X obj 496 165 inlet;
#X text 504 137 seed;
#X obj 403 241 + 1;
#X msg 364 287 seed \$1;
#X msg 148 312 seed \$1;
#X obj 449 248 + 2;
#X msg 452 290 seed \$1;
#X text 252 116 pitch (triggers env as well);
#X obj 623 302 delay;
#X obj 530 379 t b f;
#X obj 169 205 spigot 1;
#X obj 207 244 t f b b f b;
#X msg 135 153 0;
#X msg 174 153 1;
#N canvas 459 165 1095 756 vosim_aa 0;
#X text 404 89 8 times oversampled \, i hope the pitch is right...
;
#X obj 46 640 outlet~;
#X obj 48 537 *~ 0.125;
#X obj 48 560 rzero~ -1;
#X obj 48 583 rzero~ -1;
#X obj 48 606 rzero~ -1;
#X obj 47 411 *~ 0.2368;
#X obj 48 457 *~ 0.06261;
#X obj 47 434 rpole~ 0.76319;
#X obj 47 480 cpole~ 0.85223 0.20194;
#X obj 46 508 cpole~ 0.85223 -0.2019;
#X text 169 451 from pd docs modified for 8 times oversampling;
#X obj 385 108 block~ 64 1 8;
#X obj 139 111 phasor~;
#X obj 206 230 *~ -1;
#X obj 209 259 +~ 1;
#X obj 56 197 phasor~;
#X obj 88 236 samphold~;
#X obj 66 259 -~;
#X obj 64 285 wrap~;
#X obj 83 354 *~;
#X obj 63 317 cos~;
#X obj 17 57 inlet~;
#X obj 142 59 inlet~;
#X connect 2 0 3 0;
#X connect 3 0 4 0;
#X connect 4 0 5 0;
#X connect 5 0 1 0;
#X connect 6 0 8 0;
#X connect 7 0 9 0;
#X connect 8 0 7 0;
#X connect 9 0 10 0;
#X connect 9 1 10 1;
#X connect 10 0 2 0;
#X connect 13 0 14 0;
#X connect 13 0 17 1;
#X connect 14 0 15 0;
#X connect 15 0 20 1;
#X connect 16 0 17 0;
#X connect 16 0 18 0;
#X connect 17 0 18 1;
#X connect 18 0 19 0;
#X connect 19 0 21 0;
#X connect 20 0 6 0;
#X connect 21 0 20 0;
#X connect 22 0 16 0;
#X connect 23 0 13 0;
#X restore 244 686 pd vosim_aa;
#X text 254 710 vosim (antialiased);
#N canvas 0 0 450 300 pan1 0;
#X obj 297 51 inlet~;
#X obj 224 229 outlet~;
#X obj 336 218 outlet~;
#X obj 251 149 *~;
#X obj 323 154 *~;
#X obj 120 15 inlet;
#X obj 148 46 clip 0 1;
#X obj 208 75 * -1;
#X obj 204 105 + 1;
#X obj 314 123 * -1;
#X connect 0 0 3 0;
#X connect 0 0 4 1;
#X connect 3 0 1 0;
#X connect 4 0 2 0;
#X connect 5 0 6 0;
#X connect 6 0 7 0;
#X connect 7 0 8 0;
#X connect 7 0 9 0;
#X connect 8 0 3 1;
#X connect 9 0 4 0;
#X restore 260 944 pd pan1;
#X obj 206 910 + 0.5;
#X obj 325 988 outlet~;
#X msg 169 778 seed \$1;
#X obj 169 808 random 100;
#X obj 173 745 + 3;
#X obj 170 832 - 50;
#X obj 171 864 / 300;
#X text 67 889 slight random pan;
#X obj 364 757 osc~;
#X obj 361 788 *~;
#X obj 384 869 +~;
#X obj 622 634 mtof;
#X obj 630 565 random 100;
#X obj 629 598 / 10;
#X obj 343 908 bp~ 1;
#X obj 533 534 random 1000;
#X text 576 631 lfo;
#X obj 598 823 random 1000;
#X obj 409 669 mtof;
#X msg 646 532 seed \$1;
#X obj 650 499 + 3.1;
#X msg 577 496 seed \$1;
#X obj 590 461 + 3.2;
#X msg 664 787 seed \$1;
#X obj 668 754 + 3.3;
#X obj 383 639 + 10;
#X obj 589 851 / 2000;
#X obj 590 872 + 0.5;
#X obj 524 562 / 700;
#X obj 740 151 inlet;
#X text 742 128 filter;
#X connect 0 0 41 0;
#X connect 1 0 0 0;
#X connect 2 0 1 0;
#X connect 3 0 4 0;
#X connect 4 0 2 1;
#X connect 4 0 23 0;
#X connect 4 0 36 0;
#X connect 6 0 41 1;
#X connect 7 0 0 0;
#X connect 8 0 2 0;
#X connect 9 0 7 0;
#X connect 10 0 8 0;
#X connect 11 0 13 0;
#X connect 12 0 9 1;
#X connect 12 0 14 0;
#X connect 13 0 10 1;
#X connect 14 0 16 0;
#X connect 16 0 17 0;
#X connect 17 0 13 1;
#X connect 19 0 58 0;
#X connect 20 0 22 0;
#X connect 21 0 24 0;
#X connect 22 0 21 0;
#X connect 23 0 20 0;
#X connect 23 1 22 1;
#X connect 24 0 19 1;
#X connect 25 0 37 0;
#X connect 27 0 29 0;
#X connect 27 0 31 0;
#X connect 27 0 32 0;
#X connect 27 0 48 0;
#X connect 27 0 68 0;
#X connect 27 0 66 0;
#X connect 27 0 64 0;
#X connect 29 0 30 0;
#X connect 30 0 11 0;
#X connect 31 0 12 0;
#X connect 32 0 33 0;
#X connect 33 0 3 0;
#X connect 35 0 40 0;
#X connect 36 0 35 0;
#X connect 36 1 35 1;
#X connect 37 0 38 0;
#X connect 38 0 10 0;
#X connect 38 1 11 0;
#X connect 38 1 3 0;
#X connect 38 2 12 0;
#X connect 38 2 47 0;
#X connect 38 3 6 0;
#X connect 38 3 9 0;
#X connect 38 3 69 0;
#X connect 38 4 39 0;
#X connect 38 4 56 0;
#X connect 38 4 59 0;
#X connect 38 4 61 0;
#X connect 39 0 37 1;
#X connect 40 0 37 1;
#X connect 41 0 19 0;
#X connect 43 0 26 0;
#X connect 43 1 45 0;
#X connect 44 0 43 0;
#X connect 46 0 47 0;
#X connect 47 0 49 0;
#X connect 48 0 46 0;
#X connect 49 0 50 0;
#X connect 50 0 44 0;
#X connect 52 0 53 0;
#X connect 53 0 54 0;
#X connect 54 0 58 1;
#X connect 55 0 53 1;
#X connect 56 0 57 0;
#X connect 57 0 55 0;
#X connect 58 0 43 1;
#X connect 59 0 72 0;
#X connect 61 0 70 0;
#X connect 62 0 54 1;
#X connect 63 0 56 0;
#X connect 64 0 63 0;
#X connect 65 0 59 0;
#X connect 66 0 65 0;
#X connect 67 0 61 0;
#X connect 68 0 67 0;
#X connect 69 0 62 0;
#X connect 70 0 71 0;
#X connect 71 0 58 2;
#X connect 72 0 52 0;
#X connect 73 0 69 1;
#X restore -56 666 pd vosimtone;
#N canvas 421 38 1538 931 vosimtone 0;
#X obj 245 612 line~;
#X msg 228 574 \$1 \$2;
#X obj 215 550 pack f f;
#X obj 402 357 random 5000;
#X obj 403 391 + 2000;
#X text 404 326 random env len;
#X obj 378 571 mtof;
#X obj 165 560 mtof;
#X obj 209 526 mtof;
#X obj 53 512 +;
#X obj 196 489 +;
#X obj 234 416 random 64;
#X obj 140 428 random 64;
#X obj 234 454 *;
#X obj 144 468 > 31;
#X text 46 433 start ofst;
#X obj 144 493 * 2;
#X obj 155 516 - 1;
#X text 241 387 amt/dir;
#X obj 322 844 *~;
#X obj 421 493 / 3;
#X msg 508 736 0 \, 1 \$1 \, 0 \$1 \$2;
#X obj 500 658 pack f f;
#X obj 435 449 t f f;
#X obj 478 796 vline~;
#X obj 242 147 inlet;
#X obj 234 986 outlet~;
#X obj 496 165 inlet;
#X text 504 137 seed;
#X obj 403 241 + 1;
#X msg 364 287 seed \$1;
#X msg 148 312 seed \$1;
#X obj 449 248 + 2;
#X msg 452 290 seed \$1;
#X text 252 116 pitch (triggers env as well);
#X obj 623 302 delay;
#X obj 530 379 t b f;
#X obj 169 205 spigot 1;
#X obj 207 244 t f b b f b;
#X msg 135 153 0;
#X msg 174 153 1;
#N canvas 459 165 1095 756 vosim_aa 0;
#X text 404 89 8 times oversampled \, i hope the pitch is right...
;
#X obj 46 640 outlet~;
#X obj 48 537 *~ 0.125;
#X obj 48 560 rzero~ -1;
#X obj 48 583 rzero~ -1;
#X obj 48 606 rzero~ -1;
#X obj 47 411 *~ 0.2368;
#X obj 48 457 *~ 0.06261;
#X obj 47 434 rpole~ 0.76319;
#X obj 47 480 cpole~ 0.85223 0.20194;
#X obj 46 508 cpole~ 0.85223 -0.2019;
#X text 169 451 from pd docs modified for 8 times oversampling;
#X obj 385 108 block~ 64 1 8;
#X obj 139 111 phasor~;
#X obj 206 230 *~ -1;
#X obj 209 259 +~ 1;
#X obj 56 197 phasor~;
#X obj 88 236 samphold~;
#X obj 66 259 -~;
#X obj 64 285 wrap~;
#X obj 83 354 *~;
#X obj 63 317 cos~;
#X obj 17 57 inlet~;
#X obj 142 59 inlet~;
#X connect 2 0 3 0;
#X connect 3 0 4 0;
#X connect 4 0 5 0;
#X connect 5 0 1 0;
#X connect 6 0 8 0;
#X connect 7 0 9 0;
#X connect 8 0 7 0;
#X connect 9 0 10 0;
#X connect 9 1 10 1;
#X connect 10 0 2 0;
#X connect 13 0 14 0;
#X connect 13 0 17 1;
#X connect 14 0 15 0;
#X connect 15 0 20 1;
#X connect 16 0 17 0;
#X connect 16 0 18 0;
#X connect 17 0 18 1;
#X connect 18 0 19 0;
#X connect 19 0 21 0;
#X connect 20 0 6 0;
#X connect 21 0 20 0;
#X connect 22 0 16 0;
#X connect 23 0 13 0;
#X restore 244 686 pd vosim_aa;
#X text 254 710 vosim (antialiased);
#N canvas 0 0 450 300 pan1 0;
#X obj 297 51 inlet~;
#X obj 224 229 outlet~;
#X obj 336 218 outlet~;
#X obj 251 149 *~;
#X obj 323 154 *~;
#X obj 120 15 inlet;
#X obj 148 46 clip 0 1;
#X obj 208 75 * -1;
#X obj 204 105 + 1;
#X obj 314 123 * -1;
#X connect 0 0 3 0;
#X connect 0 0 4 1;
#X connect 3 0 1 0;
#X connect 4 0 2 0;
#X connect 5 0 6 0;
#X connect 6 0 7 0;
#X connect 7 0 8 0;
#X connect 7 0 9 0;
#X connect 8 0 3 1;
#X connect 9 0 4 0;
#X restore 260 944 pd pan1;
#X obj 206 910 + 0.5;
#X obj 325 988 outlet~;
#X msg 169 778 seed \$1;
#X obj 169 808 random 100;
#X obj 173 745 + 3;
#X obj 170 832 - 50;
#X obj 171 864 / 300;
#X text 67 889 slight random pan;
#X obj 364 757 osc~;
#X obj 361 788 *~;
#X obj 384 869 +~;
#X obj 622 634 mtof;
#X obj 630 565 random 100;
#X obj 629 598 / 10;
#X obj 343 908 bp~ 1;
#X obj 533 534 random 1000;
#X text 576 631 lfo;
#X obj 598 823 random 1000;
#X obj 409 669 mtof;
#X msg 646 532 seed \$1;
#X obj 650 499 + 3.1;
#X msg 577 496 seed \$1;
#X obj 590 461 + 3.2;
#X msg 664 787 seed \$1;
#X obj 668 754 + 3.3;
#X obj 383 639 + 10;
#X obj 589 851 / 2000;
#X obj 590 872 + 0.5;
#X obj 524 562 / 700;
#X obj 740 151 inlet;
#X text 742 128 filter;
#X connect 0 0 41 0;
#X connect 1 0 0 0;
#X connect 2 0 1 0;
#X connect 3 0 4 0;
#X connect 4 0 2 1;
#X connect 4 0 23 0;
#X connect 4 0 36 0;
#X connect 6 0 41 1;
#X connect 7 0 0 0;
#X connect 8 0 2 0;
#X connect 9 0 7 0;
#X connect 10 0 8 0;
#X connect 11 0 13 0;
#X connect 12 0 9 1;
#X connect 12 0 14 0;
#X connect 13 0 10 1;
#X connect 14 0 16 0;
#X connect 16 0 17 0;
#X connect 17 0 13 1;
#X connect 19 0 58 0;
#X connect 20 0 22 0;
#X connect 21 0 24 0;
#X connect 22 0 21 0;
#X connect 23 0 20 0;
#X connect 23 1 22 1;
#X connect 24 0 19 1;
#X connect 25 0 37 0;
#X connect 27 0 29 0;
#X connect 27 0 31 0;
#X connect 27 0 32 0;
#X connect 27 0 48 0;
#X connect 27 0 68 0;
#X connect 27 0 66 0;
#X connect 27 0 64 0;
#X connect 29 0 30 0;
#X connect 30 0 11 0;
#X connect 31 0 12 0;
#X connect 32 0 33 0;
#X connect 33 0 3 0;
#X connect 35 0 40 0;
#X connect 36 0 35 0;
#X connect 36 1 35 1;
#X connect 37 0 38 0;
#X connect 38 0 10 0;
#X connect 38 1 11 0;
#X connect 38 1 3 0;
#X connect 38 2 12 0;
#X connect 38 2 47 0;
#X connect 38 3 6 0;
#X connect 38 3 9 0;
#X connect 38 3 69 0;
#X connect 38 4 39 0;
#X connect 38 4 56 0;
#X connect 38 4 59 0;
#X connect 38 4 61 0;
#X connect 39 0 37 1;
#X connect 40 0 37 1;
#X connect 41 0 19 0;
#X connect 43 0 26 0;
#X connect 43 1 45 0;
#X connect 44 0 43 0;
#X connect 46 0 47 0;
#X connect 47 0 49 0;
#X connect 48 0 46 0;
#X connect 49 0 50 0;
#X connect 50 0 44 0;
#X connect 52 0 53 0;
#X connect 53 0 54 0;
#X connect 54 0 58 1;
#X connect 55 0 53 1;
#X connect 56 0 57 0;
#X connect 57 0 55 0;
#X connect 58 0 43 1;
#X connect 59 0 72 0;
#X connect 61 0 70 0;
#X connect 62 0 54 1;
#X connect 63 0 56 0;
#X connect 64 0 63 0;
#X connect 65 0 59 0;
#X connect 66 0 65 0;
#X connect 67 0 61 0;
#X connect 68 0 67 0;
#X connect 69 0 62 0;
#X connect 70 0 71 0;
#X connect 71 0 58 2;
#X connect 72 0 52 0;
#X connect 73 0 69 1;
#X restore -25 713 pd vosimtone;
#N canvas 421 38 1538 931 vosimtone 0;
#X obj 245 612 line~;
#X msg 228 574 \$1 \$2;
#X obj 215 550 pack f f;
#X obj 402 357 random 5000;
#X obj 403 391 + 2000;
#X text 404 326 random env len;
#X obj 378 571 mtof;
#X obj 165 560 mtof;
#X obj 209 526 mtof;
#X obj 53 512 +;
#X obj 196 489 +;
#X obj 234 416 random 64;
#X obj 140 428 random 64;
#X obj 234 454 *;
#X obj 144 468 > 31;
#X text 46 433 start ofst;
#X obj 144 493 * 2;
#X obj 155 516 - 1;
#X text 241 387 amt/dir;
#X obj 322 844 *~;
#X obj 421 493 / 3;
#X msg 508 736 0 \, 1 \$1 \, 0 \$1 \$2;
#X obj 500 658 pack f f;
#X obj 435 449 t f f;
#X obj 478 796 vline~;
#X obj 242 147 inlet;
#X obj 234 986 outlet~;
#X obj 496 165 inlet;
#X text 504 137 seed;
#X obj 403 241 + 1;
#X msg 364 287 seed \$1;
#X msg 148 312 seed \$1;
#X obj 449 248 + 2;
#X msg 452 290 seed \$1;
#X text 252 116 pitch (triggers env as well);
#X obj 623 302 delay;
#X obj 530 379 t b f;
#X obj 169 205 spigot 1;
#X obj 207 244 t f b b f b;
#X msg 135 153 0;
#X msg 174 153 1;
#N canvas 459 165 1095 756 vosim_aa 0;
#X text 404 89 8 times oversampled \, i hope the pitch is right...
;
#X obj 46 640 outlet~;
#X obj 48 537 *~ 0.125;
#X obj 48 560 rzero~ -1;
#X obj 48 583 rzero~ -1;
#X obj 48 606 rzero~ -1;
#X obj 47 411 *~ 0.2368;
#X obj 48 457 *~ 0.06261;
#X obj 47 434 rpole~ 0.76319;
#X obj 47 480 cpole~ 0.85223 0.20194;
#X obj 46 508 cpole~ 0.85223 -0.2019;
#X text 169 451 from pd docs modified for 8 times oversampling;
#X obj 385 108 block~ 64 1 8;
#X obj 139 111 phasor~;
#X obj 206 230 *~ -1;
#X obj 209 259 +~ 1;
#X obj 56 197 phasor~;
#X obj 88 236 samphold~;
#X obj 66 259 -~;
#X obj 64 285 wrap~;
#X obj 83 354 *~;
#X obj 63 317 cos~;
#X obj 17 57 inlet~;
#X obj 142 59 inlet~;
#X connect 2 0 3 0;
#X connect 3 0 4 0;
#X connect 4 0 5 0;
#X connect 5 0 1 0;
#X connect 6 0 8 0;
#X connect 7 0 9 0;
#X connect 8 0 7 0;
#X connect 9 0 10 0;
#X connect 9 1 10 1;
#X connect 10 0 2 0;
#X connect 13 0 14 0;
#X connect 13 0 17 1;
#X connect 14 0 15 0;
#X connect 15 0 20 1;
#X connect 16 0 17 0;
#X connect 16 0 18 0;
#X connect 17 0 18 1;
#X connect 18 0 19 0;
#X connect 19 0 21 0;
#X connect 20 0 6 0;
#X connect 21 0 20 0;
#X connect 22 0 16 0;
#X connect 23 0 13 0;
#X restore 244 686 pd vosim_aa;
#X text 254 710 vosim (antialiased);
#N canvas 0 0 450 300 pan1 0;
#X obj 297 51 inlet~;
#X obj 224 229 outlet~;
#X obj 336 218 outlet~;
#X obj 251 149 *~;
#X obj 323 154 *~;
#X obj 120 15 inlet;
#X obj 148 46 clip 0 1;
#X obj 208 75 * -1;
#X obj 204 105 + 1;
#X obj 314 123 * -1;
#X connect 0 0 3 0;
#X connect 0 0 4 1;
#X connect 3 0 1 0;
#X connect 4 0 2 0;
#X connect 5 0 6 0;
#X connect 6 0 7 0;
#X connect 7 0 8 0;
#X connect 7 0 9 0;
#X connect 8 0 3 1;
#X connect 9 0 4 0;
#X restore 260 944 pd pan1;
#X obj 206 910 + 0.5;
#X obj 325 988 outlet~;
#X msg 169 778 seed \$1;
#X obj 169 808 random 100;
#X obj 173 745 + 3;
#X obj 170 832 - 50;
#X obj 171 864 / 300;
#X text 67 889 slight random pan;
#X obj 364 757 osc~;
#X obj 361 788 *~;
#X obj 384 869 +~;
#X obj 622 634 mtof;
#X obj 630 565 random 100;
#X obj 629 598 / 10;
#X obj 328 909 bp~ 1;
#X obj 533 534 random 1000;
#X text 576 631 lfo;
#X obj 598 823 random 1000;
#X obj 409 669 mtof;
#X msg 646 532 seed \$1;
#X obj 650 499 + 3.1;
#X msg 577 496 seed \$1;
#X obj 590 461 + 3.2;
#X msg 664 787 seed \$1;
#X obj 668 754 + 3.3;
#X obj 383 639 + 10;
#X obj 589 851 / 2000;
#X obj 590 872 + 0.5;
#X obj 524 562 / 700;
#X obj 740 151 inlet;
#X text 742 128 filter;
#X connect 0 0 41 0;
#X connect 1 0 0 0;
#X connect 2 0 1 0;
#X connect 3 0 4 0;
#X connect 4 0 2 1;
#X connect 4 0 23 0;
#X connect 4 0 36 0;
#X connect 6 0 41 1;
#X connect 7 0 0 0;
#X connect 8 0 2 0;
#X connect 9 0 7 0;
#X connect 10 0 8 0;
#X connect 11 0 13 0;
#X connect 12 0 9 1;
#X connect 12 0 14 0;
#X connect 13 0 10 1;
#X connect 14 0 16 0;
#X connect 16 0 17 0;
#X connect 17 0 13 1;
#X connect 19 0 58 0;
#X connect 20 0 22 0;
#X connect 21 0 24 0;
#X connect 22 0 21 0;
#X connect 23 0 20 0;
#X connect 23 1 22 1;
#X connect 24 0 19 1;
#X connect 25 0 37 0;
#X connect 27 0 29 0;
#X connect 27 0 31 0;
#X connect 27 0 32 0;
#X connect 27 0 48 0;
#X connect 27 0 68 0;
#X connect 27 0 66 0;
#X connect 27 0 64 0;
#X connect 29 0 30 0;
#X connect 30 0 11 0;
#X connect 31 0 12 0;
#X connect 32 0 33 0;
#X connect 33 0 3 0;
#X connect 35 0 40 0;
#X connect 36 0 35 0;
#X connect 36 1 35 1;
#X connect 37 0 38 0;
#X connect 38 0 10 0;
#X connect 38 1 11 0;
#X connect 38 1 3 0;
#X connect 38 2 12 0;
#X connect 38 2 47 0;
#X connect 38 3 6 0;
#X connect 38 3 9 0;
#X connect 38 3 69 0;
#X connect 38 4 39 0;
#X connect 38 4 56 0;
#X connect 38 4 59 0;
#X connect 38 4 61 0;
#X connect 39 0 37 1;
#X connect 40 0 37 1;
#X connect 41 0 19 0;
#X connect 43 0 26 0;
#X connect 43 1 45 0;
#X connect 44 0 43 0;
#X connect 46 0 47 0;
#X connect 47 0 49 0;
#X connect 48 0 46 0;
#X connect 49 0 50 0;
#X connect 50 0 44 0;
#X connect 52 0 53 0;
#X connect 53 0 54 0;
#X connect 54 0 58 1;
#X connect 55 0 53 1;
#X connect 56 0 57 0;
#X connect 57 0 55 0;
#X connect 58 0 43 1;
#X connect 59 0 72 0;
#X connect 61 0 70 0;
#X connect 62 0 54 1;
#X connect 63 0 56 0;
#X connect 64 0 63 0;
#X connect 65 0 59 0;
#X connect 66 0 65 0;
#X connect 67 0 61 0;
#X connect 68 0 67 0;
#X connect 69 0 62 0;
#X connect 70 0 71 0;
#X connect 71 0 58 2;
#X connect 72 0 52 0;
#X connect 73 0 69 1;
#X restore 10 764 pd vosimtone;
#N canvas 421 38 1538 931 vosimtone 0;
#X obj 245 612 line~;
#X msg 228 574 \$1 \$2;
#X obj 215 550 pack f f;
#X obj 402 357 random 5000;
#X obj 403 391 + 2000;
#X text 404 326 random env len;
#X obj 378 571 mtof;
#X obj 165 560 mtof;
#X obj 209 526 mtof;
#X obj 53 512 +;
#X obj 196 489 +;
#X obj 234 416 random 64;
#X obj 140 428 random 64;
#X obj 234 454 *;
#X obj 144 468 > 31;
#X text 46 433 start ofst;
#X obj 144 493 * 2;
#X obj 155 516 - 1;
#X text 241 387 amt/dir;
#X obj 322 844 *~;
#X obj 421 493 / 3;
#X msg 508 736 0 \, 1 \$1 \, 0 \$1 \$2;
#X obj 500 658 pack f f;
#X obj 435 449 t f f;
#X obj 478 796 vline~;
#X obj 242 147 inlet;
#X obj 234 986 outlet~;
#X obj 496 165 inlet;
#X text 504 137 seed;
#X obj 403 241 + 1;
#X msg 364 287 seed \$1;
#X msg 148 312 seed \$1;
#X obj 449 248 + 2;
#X msg 452 290 seed \$1;
#X text 252 116 pitch (triggers env as well);
#X obj 623 302 delay;
#X obj 530 379 t b f;
#X obj 169 205 spigot 1;
#X obj 207 244 t f b b f b;
#X msg 135 153 0;
#X msg 174 153 1;
#N canvas 459 165 1095 756 vosim_aa 0;
#X text 404 89 8 times oversampled \, i hope the pitch is right...
;
#X obj 46 640 outlet~;
#X obj 48 537 *~ 0.125;
#X obj 48 560 rzero~ -1;
#X obj 48 583 rzero~ -1;
#X obj 48 606 rzero~ -1;
#X obj 47 411 *~ 0.2368;
#X obj 48 457 *~ 0.06261;
#X obj 47 434 rpole~ 0.76319;
#X obj 47 480 cpole~ 0.85223 0.20194;
#X obj 46 508 cpole~ 0.85223 -0.2019;
#X text 169 451 from pd docs modified for 8 times oversampling;
#X obj 385 108 block~ 64 1 8;
#X obj 139 111 phasor~;
#X obj 206 230 *~ -1;
#X obj 209 259 +~ 1;
#X obj 56 197 phasor~;
#X obj 88 236 samphold~;
#X obj 66 259 -~;
#X obj 64 285 wrap~;
#X obj 83 354 *~;
#X obj 63 317 cos~;
#X obj 17 57 inlet~;
#X obj 142 59 inlet~;
#X connect 2 0 3 0;
#X connect 3 0 4 0;
#X connect 4 0 5 0;
#X connect 5 0 1 0;
#X connect 6 0 8 0;
#X connect 7 0 9 0;
#X connect 8 0 7 0;
#X connect 9 0 10 0;
#X connect 9 1 10 1;
#X connect 10 0 2 0;
#X connect 13 0 14 0;
#X connect 13 0 17 1;
#X connect 14 0 15 0;
#X connect 15 0 20 1;
#X connect 16 0 17 0;
#X connect 16 0 18 0;
#X connect 17 0 18 1;
#X connect 18 0 19 0;
#X connect 19 0 21 0;
#X connect 20 0 6 0;
#X connect 21 0 20 0;
#X connect 22 0 16 0;
#X connect 23 0 13 0;
#X restore 244 686 pd vosim_aa;
#X text 254 710 vosim (antialiased);
#N canvas 0 0 450 300 pan1 0;
#X obj 297 51 inlet~;
#X obj 224 229 outlet~;
#X obj 336 218 outlet~;
#X obj 251 149 *~;
#X obj 323 154 *~;
#X obj 120 15 inlet;
#X obj 148 46 clip 0 1;
#X obj 208 75 * -1;
#X obj 204 105 + 1;
#X obj 314 123 * -1;
#X connect 0 0 3 0;
#X connect 0 0 4 1;
#X connect 3 0 1 0;
#X connect 4 0 2 0;
#X connect 5 0 6 0;
#X connect 6 0 7 0;
#X connect 7 0 8 0;
#X connect 7 0 9 0;
#X connect 8 0 3 1;
#X connect 9 0 4 0;
#X restore 260 944 pd pan1;
#X obj 206 910 + 0.5;
#X obj 325 988 outlet~;
#X msg 169 778 seed \$1;
#X obj 169 808 random 100;
#X obj 173 745 + 3;
#X obj 170 832 - 50;
#X obj 171 864 / 300;
#X text 67 889 slight random pan;
#X obj 364 757 osc~;
#X obj 361 788 *~;
#X obj 384 869 +~;
#X obj 622 634 mtof;
#X obj 630 565 random 100;
#X obj 629 598 / 10;
#X obj 343 908 bp~ 1;
#X obj 533 534 random 1000;
#X text 576 631 lfo;
#X obj 598 823 random 1000;
#X obj 409 669 mtof;
#X msg 646 532 seed \$1;
#X obj 650 499 + 3.1;
#X msg 577 496 seed \$1;
#X obj 590 461 + 3.2;
#X msg 664 787 seed \$1;
#X obj 668 754 + 3.3;
#X obj 383 639 + 10;
#X obj 589 851 / 2000;
#X obj 590 872 + 0.5;
#X obj 524 562 / 700;
#X obj 740 151 inlet;
#X text 742 128 filter;
#X connect 0 0 41 0;
#X connect 1 0 0 0;
#X connect 2 0 1 0;
#X connect 3 0 4 0;
#X connect 4 0 2 1;
#X connect 4 0 23 0;
#X connect 4 0 36 0;
#X connect 6 0 41 1;
#X connect 7 0 0 0;
#X connect 8 0 2 0;
#X connect 9 0 7 0;
#X connect 10 0 8 0;
#X connect 11 0 13 0;
#X connect 12 0 9 1;
#X connect 12 0 14 0;
#X connect 13 0 10 1;
#X connect 14 0 16 0;
#X connect 16 0 17 0;
#X connect 17 0 13 1;
#X connect 19 0 58 0;
#X connect 20 0 22 0;
#X connect 21 0 24 0;
#X connect 22 0 21 0;
#X connect 23 0 20 0;
#X connect 23 1 22 1;
#X connect 24 0 19 1;
#X connect 25 0 37 0;
#X connect 27 0 29 0;
#X connect 27 0 31 0;
#X connect 27 0 32 0;
#X connect 27 0 48 0;
#X connect 27 0 68 0;
#X connect 27 0 66 0;
#X connect 27 0 64 0;
#X connect 29 0 30 0;
#X connect 30 0 11 0;
#X connect 31 0 12 0;
#X connect 32 0 33 0;
#X connect 33 0 3 0;
#X connect 35 0 40 0;
#X connect 36 0 35 0;
#X connect 36 1 35 1;
#X connect 37 0 38 0;
#X connect 38 0 10 0;
#X connect 38 1 11 0;
#X connect 38 1 3 0;
#X connect 38 2 12 0;
#X connect 38 2 47 0;
#X connect 38 3 6 0;
#X connect 38 3 9 0;
#X connect 38 3 69 0;
#X connect 38 4 39 0;
#X connect 38 4 56 0;
#X connect 38 4 59 0;
#X connect 38 4 61 0;
#X connect 39 0 37 1;
#X connect 40 0 37 1;
#X connect 41 0 19 0;
#X connect 43 0 26 0;
#X connect 43 1 45 0;
#X connect 44 0 43 0;
#X connect 46 0 47 0;
#X connect 47 0 49 0;
#X connect 48 0 46 0;
#X connect 49 0 50 0;
#X connect 50 0 44 0;
#X connect 52 0 53 0;
#X connect 53 0 54 0;
#X connect 54 0 58 1;
#X connect 55 0 53 1;
#X connect 56 0 57 0;
#X connect 57 0 55 0;
#X connect 58 0 43 1;
#X connect 59 0 72 0;
#X connect 61 0 70 0;
#X connect 62 0 54 1;
#X connect 63 0 56 0;
#X connect 64 0 63 0;
#X connect 65 0 59 0;
#X connect 66 0 65 0;
#X connect 67 0 61 0;
#X connect 68 0 67 0;
#X connect 69 0 62 0;
#X connect 70 0 71 0;
#X connect 71 0 58 2;
#X connect 72 0 52 0;
#X connect 73 0 69 1;
#X restore 35 825 pd vosimtone;
#X obj -195 -59 random;
#X obj -195 -23 expr floor($f1 * 10000);
#X connect 0 0 12 1;
#X connect 0 0 13 1;
#X connect 1 0 12 3;
#X connect 1 0 14 2;
#X connect 2 0 12 5;
#X connect 2 0 14 4;
#X connect 3 0 12 6;
#X connect 3 0 14 5;
#X connect 4 0 12 8;
#X connect 4 0 14 7;
#X connect 5 0 12 10;
#X connect 5 0 14 9;
#X connect 6 0 12 12;
#X connect 6 0 14 11;
#X connect 7 0 12 2;
#X connect 7 0 14 1;
#X connect 8 0 12 4;
#X connect 8 0 14 3;
#X connect 9 0 12 7;
#X connect 9 0 14 6;
#X connect 10 0 12 9;
#X connect 10 0 14 8;
#X connect 11 0 12 11;
#X connect 11 0 14 10;
#X connect 12 0 58 0;
#X connect 13 0 14 0;
#X connect 14 0 20 1;
#X connect 14 0 21 1;
#X connect 15 0 19 0;
#X connect 16 0 25 0;
#X connect 17 0 25 0;
#X connect 18 0 22 0;
#X connect 19 0 20 0;
#X connect 19 1 13 0;
#X connect 20 0 17 0;
#X connect 21 0 16 0;
#X connect 22 0 21 0;
#X connect 22 1 13 0;
#X connect 23 0 27 0;
#X connect 24 0 25 0;
#X connect 25 0 0 0;
#X connect 25 1 7 0;
#X connect 25 2 1 0;
#X connect 25 3 8 0;
#X connect 25 4 2 0;
#X connect 25 5 3 0;
#X connect 25 6 9 0;
#X connect 25 7 4 0;
#X connect 25 8 10 0;
#X connect 25 9 5 0;
#X connect 25 10 11 0;
#X connect 25 11 6 0;
#X connect 26 0 28 0;
#X connect 27 0 26 0;
#X connect 28 0 24 0;
#X connect 28 0 23 0;
#X connect 29 0 84 0;
#X connect 30 0 67 0;
#X connect 31 0 29 0;
#X connect 32 0 33 0;
#X connect 33 0 12 0;
#X connect 34 0 71 1;
#X connect 35 0 36 0;
#X connect 35 0 38 0;
#X connect 36 0 37 0;
#X connect 37 0 35 1;
#X connect 38 0 39 0;
#X connect 39 0 71 0;
#X connect 39 1 77 0;
#X connect 39 2 78 0;
#X connect 39 3 79 0;
#X connect 39 4 80 0;
#X connect 39 5 81 0;
#X connect 39 6 82 0;
#X connect 39 7 83 0;
#X connect 40 0 77 1;
#X connect 41 0 34 0;
#X connect 41 0 40 0;
#X connect 41 0 45 0;
#X connect 41 0 46 0;
#X connect 41 0 47 0;
#X connect 41 0 48 0;
#X connect 41 0 49 0;
#X connect 41 0 50 0;
#X connect 41 0 57 0;
#X connect 41 0 61 0;
#X connect 44 0 31 0;
#X connect 45 0 78 1;
#X connect 46 0 79 1;
#X connect 47 0 80 1;
#X connect 48 0 81 1;
#X connect 49 0 82 1;
#X connect 50 0 83 1;
#X connect 52 0 33 1;
#X connect 53 0 32 1;
#X connect 54 0 75 0;
#X connect 55 0 30 0;
#X connect 56 0 55 1;
#X connect 57 0 32 0;
#X connect 58 0 38 1;
#X connect 59 0 60 0;
#X connect 60 0 70 0;
#X connect 61 0 62 0;
#X connect 62 0 59 0;
#X connect 67 0 35 0;
#X connect 67 1 32 0;
#X connect 67 2 59 0;
#X connect 68 0 69 1;
#X connect 69 0 58 1;
#X connect 70 0 69 0;
#X connect 71 0 73 0;
#X connect 71 1 74 0;
#X connect 73 0 42 0;
#X connect 74 0 43 0;
#X connect 75 0 56 0;
#X connect 76 0 71 2;
#X connect 76 0 77 2;
#X connect 76 0 78 2;
#X connect 76 0 79 2;
#X connect 76 0 80 2;
#X connect 76 0 81 2;
#X connect 76 0 82 2;
#X connect 76 0 83 2;
#X connect 77 0 73 0;
#X connect 77 1 74 0;
#X connect 78 0 73 0;
#X connect 78 1 74 0;
#X connect 79 0 73 0;
#X connect 79 1 74 0;
#X connect 80 0 73 0;
#X connect 80 1 74 0;
#X connect 81 0 73 0;
#X connect 81 1 74 0;
#X connect 82 0 73 0;
#X connect 82 1 74 0;
#X connect 83 0 73 0;
#X connect 83 1 74 0;
#X connect 84 0 85 0;
#X connect 85 0 55 0;
#X coords 0 -1 1 1 120 140 1 100 100;
#X restore 43 39 pd vosimchoir;
#X obj 91 468 dac~;
#N canvas 820 157 977 518 reverb3 0;
#X obj -54 73 inlet~;
#X obj 5 435 outlet~;
#X obj 123 435 outlet~;
#X obj 105 117 hsl 100 10 1 0 0 1 empty empty lv 2 5 0 10 #fcfcfc #000000
#000000 6100 1;
#X obj 107 218 *;
#X obj 114 251 *;
#X obj 83 194 t b f f;
#X obj 98 276 -;
#X msg 82 248 1;
#X obj 117 308 * 100;
#X obj 105 129 hsl 100 10 1 0 0 1 empty empty dp 2 5 0 10 #fcfcfc #000000
#000000 5900 1;
#X obj 180 238 *;
#X obj 184 262 *;
#X obj 171 211 t f f;
#X obj 186 294 * 100;
#X obj 105 141 hsl 100 10 1 0 0 1 empty empty co 2 5 0 10 #fcfcfc #000000
#000000 7100 1;
#X obj 121 331 * 6000;
#X obj 24 74 inlet~;
#X obj 105 166 hsl 100 10 0 127 0 1 empty empty dry/wet 2 5 0 10 #fcfcfc
#000000 #000000 3000 1;
#N canvas 265 213 774 561 drywet 0;
#X obj 174 270 inlet~;
#X obj 118 481 outlet~;
#X obj 212 409 *~;
#X obj 122 417 *~;
#X obj 217 477 outlet~;
#X obj 259 263 clip 0 1;
#X obj 261 228 inlet;
#X obj 257 316 line~;
#X msg 257 293 \$1 10;
#X obj 138 349 *~ -1;
#X obj 129 374 +~ 1;
#X connect 0 0 3 1;
#X connect 0 0 2 0;
#X connect 2 0 4 0;
#X connect 3 0 1 0;
#X connect 5 0 8 0;
#X connect 6 0 5 0;
#X connect 7 0 2 1;
#X connect 7 0 9 0;
#X connect 8 0 7 0;
#X connect 9 0 10 0;
#X connect 10 0 3 0;
#X restore -59 235 pd drywet;
#N canvas 267 214 774 561 drywet 0;
#X obj 174 270 inlet~;
#X obj 118 481 outlet~;
#X obj 212 409 *~;
#X obj 123 403 *~;
#X obj 217 477 outlet~;
#X obj 259 263 clip 0 1;
#X obj 273 221 inlet;
#X obj 257 316 line~;
#X msg 257 293 \$1 10;
#X obj 117 381 +~ 1;
#X obj 117 357 *~ -1;
#X connect 0 0 3 1;
#X connect 0 0 2 0;
#X connect 2 0 4 0;
#X connect 3 0 1 0;
#X connect 5 0 8 0;
#X connect 6 0 5 0;
#X connect 7 0 2 1;
#X connect 7 0 10 0;
#X connect 8 0 7 0;
#X connect 9 0 3 0;
#X connect 10 0 9 0;
#X restore 10 282 pd drywet;
#X obj 25 244 / 128;
#X obj -3 358 abs_rev3rs 100 90 3000 20;
#X obj 105 153 hsl 100 10 0 127 0 1 empty empty size 2 5 0 10 #fcfcfc
#000000 #000000 8100 1;
#X obj 241 327 line~;
#X msg 242 298 \$1 50;
#X obj 242 274 + 0.01;
#X obj 241 219 *;
#X obj 241 244 * 5;
#X obj 254 194 / 128;
#X connect 0 0 19 0;
#X connect 3 0 6 0;
#X connect 4 0 5 1;
#X connect 4 0 5 0;
#X connect 5 0 7 1;
#X connect 6 0 8 0;
#X connect 6 1 4 0;
#X connect 6 2 4 1;
#X connect 7 0 9 0;
#X connect 8 0 7 0;
#X connect 9 0 22 3;
#X connect 10 0 13 0;
#X connect 11 0 12 1;
#X connect 11 0 12 0;
#X connect 12 0 14 0;
#X connect 13 0 11 0;
#X connect 13 1 11 1;
#X connect 14 0 22 5;
#X connect 15 0 16 0;
#X connect 16 0 22 4;
#X connect 17 0 20 0;
#X connect 18 0 21 0;
#X connect 19 0 1 0;
#X connect 19 1 22 0;
#X connect 20 0 2 0;
#X connect 20 1 22 1;
#X connect 21 0 20 1;
#X connect 21 0 19 1;
#X connect 22 0 1 0;
#X connect 22 1 2 0;
#X connect 23 0 29 0;
#X connect 24 0 22 6;
#X connect 25 0 24 0;
#X connect 26 0 25 0;
#X connect 27 0 28 0;
#X connect 28 0 26 0;
#X connect 29 0 27 1;
#X connect 29 0 27 0;
#X coords 0 -1 1 1 110 80 1 100 100;
#X restore 55 311 pd reverb3;
#N canvas 1 77 976 853 chorus2 0;
#X obj 12 37 inlet~;
#X obj 81 738 outlet~;
#X obj 475 654 outlet~;
#X obj 84 422 cos~;
#X obj 75 471 +~ 1;
#X obj 160 448 cos~;
#X obj 165 478 +~ 1;
#X obj 171 318 phasor~;
#X obj 182 548 *~ 0.3;
#X obj 251 456 cos~;
#X obj 259 485 +~ 1;
#X obj 329 453 cos~;
#X obj 334 483 +~ 1;
#X obj 92 548 *~ 0.31;
#X obj 160 420 +~ 0.16666;
#X obj 325 421 +~ 0.5;
#X obj 250 420 +~ 0.33333;
#X obj 404 449 cos~;
#X obj 405 473 +~ 1;
#X obj 430 546 *~ 0.3;
#X obj 479 454 cos~;
#X obj 484 484 +~ 1;
#X obj 495 543 *~ 0.31;
#X obj 394 420 +~ 0.66666;
#X obj 475 422 +~ 0.833333;
#X obj 270 553 *~ 0.29;
#X obj 347 547 *~ 0.29;
#X obj 106 116 hsl 70 10 0 1 0 1 empty empty speed 0 5 0 10 #fcfcfc
#000000 #9c9c9c 1100 1;
#X obj 159 171 t f f;
#X obj 165 195 *;
#X obj 169 223 * 9.9;
#X obj 173 249 + 0.1;
#X obj -5 587 abs_dly_short_vd1;
#X obj 96 505 *~;
#X obj 106 128 hsl 70 10 0 1 0 1 empty empty depth 0 5 0 10 #fcfcfc
#000000 #9c9c9c 1900 1;
#X obj 211 162 t f f;
#X obj 217 186 *;
#X obj 223 248 + 1;
#X obj 72 328 *~ 0.16666;
#X obj 347 311 line~;
#X msg 226 278 \$1 30;
#X obj 187 513 *~;
#X obj 124 590 abs_dly_short_vd1;
#X obj 277 521 *~;
#X obj 248 593 abs_dly_short_vd1;
#X obj 367 595 abs_dly_short_vd1;
#X obj 338 514 *~;
#X obj 426 513 *~;
#X obj 496 598 abs_dly_short_vd1;
#X obj 484 516 *~;
#X obj 620 601 abs_dly_short_vd1;
#X obj 223 219 * 20;
#X text 124 39 stereochorus with 6 delays;
#X connect 0 0 38 0;
#X connect 3 0 4 0;
#X connect 4 0 33 0;
#X connect 5 0 6 0;
#X connect 6 0 41 0;
#X connect 7 0 3 0;
#X connect 7 0 14 0;
#X connect 7 0 15 0;
#X connect 7 0 16 0;
#X connect 7 0 23 0;
#X connect 7 0 24 0;
#X connect 8 0 42 1;
#X connect 9 0 10 0;
#X connect 10 0 43 0;
#X connect 11 0 12 0;
#X connect 12 0 46 0;
#X connect 13 0 32 1;
#X connect 14 0 5 0;
#X connect 15 0 11 0;
#X connect 16 0 9 0;
#X connect 17 0 18 0;
#X connect 18 0 47 0;
#X connect 19 0 48 1;
#X connect 20 0 21 0;
#X connect 21 0 49 0;
#X connect 22 0 50 1;
#X connect 23 0 17 0;
#X connect 24 0 20 0;
#X connect 25 0 44 1;
#X connect 26 0 45 1;
#X connect 27 0 28 0;
#X connect 28 0 29 0;
#X connect 28 1 29 1;
#X connect 29 0 30 0;
#X connect 30 0 31 0;
#X connect 31 0 7 0;
#X connect 32 0 1 0;
#X connect 33 0 13 0;
#X connect 34 0 35 0;
#X connect 35 0 36 0;
#X connect 35 1 36 1;
#X connect 36 0 51 0;
#X connect 37 0 40 0;
#X connect 38 0 32 0;
#X connect 38 0 42 0;
#X connect 38 0 44 0;
#X connect 38 0 45 0;
#X connect 38 0 48 0;
#X connect 38 0 50 0;
#X connect 39 0 33 1;
#X connect 39 0 41 1;
#X connect 39 0 43 1;
#X connect 39 0 47 1;
#X connect 39 0 49 1;
#X connect 40 0 39 0;
#X connect 41 0 8 0;
#X connect 42 0 2 0;
#X connect 43 0 25 0;
#X connect 44 0 1 0;
#X connect 45 0 2 0;
#X connect 46 0 26 0;
#X connect 47 0 19 0;
#X connect 48 0 1 0;
#X connect 49 0 22 0;
#X connect 50 0 2 0;
#X connect 51 0 37 0;
#X coords 0 -1 1 1 80 40 1 100 100;
#X restore 166 224 pd chorus2;
#N canvas 1 77 976 853 chorus2 0;
#X obj 12 37 inlet~;
#X obj 81 738 outlet~;
#X obj 475 654 outlet~;
#X obj 84 422 cos~;
#X obj 75 471 +~ 1;
#X obj 160 448 cos~;
#X obj 165 478 +~ 1;
#X obj 171 318 phasor~;
#X obj 182 548 *~ 0.3;
#X obj 251 456 cos~;
#X obj 259 485 +~ 1;
#X obj 329 453 cos~;
#X obj 334 483 +~ 1;
#X obj 92 548 *~ 0.31;
#X obj 160 420 +~ 0.16666;
#X obj 325 421 +~ 0.5;
#X obj 250 420 +~ 0.33333;
#X obj 404 449 cos~;
#X obj 405 473 +~ 1;
#X obj 430 546 *~ 0.3;
#X obj 479 454 cos~;
#X obj 484 484 +~ 1;
#X obj 495 543 *~ 0.31;
#X obj 394 420 +~ 0.66666;
#X obj 475 422 +~ 0.833333;
#X obj 270 553 *~ 0.29;
#X obj 347 547 *~ 0.29;
#X obj 106 116 hsl 70 10 0 1 0 1 empty empty speed 0 5 0 10 #fcfcfc
#000000 #9c9c9c 400 1;
#X obj 159 171 t f f;
#X obj 165 195 *;
#X obj 169 223 * 9.9;
#X obj 173 249 + 0.1;
#X obj -5 587 abs_dly_short_vd1;
#X obj 96 505 *~;
#X obj 106 128 hsl 70 10 0 1 0 1 empty empty depth 0 5 0 10 #fcfcfc
#000000 #9c9c9c 2100 1;
#X obj 211 162 t f f;
#X obj 217 186 *;
#X obj 223 248 + 1;
#X obj 72 328 *~ 0.16666;
#X obj 347 311 line~;
#X msg 226 278 \$1 30;
#X obj 187 513 *~;
#X obj 124 590 abs_dly_short_vd1;
#X obj 277 521 *~;
#X obj 248 593 abs_dly_short_vd1;
#X obj 367 595 abs_dly_short_vd1;
#X obj 338 514 *~;
#X obj 426 513 *~;
#X obj 496 598 abs_dly_short_vd1;
#X obj 484 516 *~;
#X obj 620 601 abs_dly_short_vd1;
#X obj 223 219 * 20;
#X text 124 39 stereochorus with 6 delays;
#X connect 0 0 38 0;
#X connect 3 0 4 0;
#X connect 4 0 33 0;
#X connect 5 0 6 0;
#X connect 6 0 41 0;
#X connect 7 0 3 0;
#X connect 7 0 14 0;
#X connect 7 0 15 0;
#X connect 7 0 16 0;
#X connect 7 0 23 0;
#X connect 7 0 24 0;
#X connect 8 0 42 1;
#X connect 9 0 10 0;
#X connect 10 0 43 0;
#X connect 11 0 12 0;
#X connect 12 0 46 0;
#X connect 13 0 32 1;
#X connect 14 0 5 0;
#X connect 15 0 11 0;
#X connect 16 0 9 0;
#X connect 17 0 18 0;
#X connect 18 0 47 0;
#X connect 19 0 48 1;
#X connect 20 0 21 0;
#X connect 21 0 49 0;
#X connect 22 0 50 1;
#X connect 23 0 17 0;
#X connect 24 0 20 0;
#X connect 25 0 44 1;
#X connect 26 0 45 1;
#X connect 27 0 28 0;
#X connect 28 0 29 0;
#X connect 28 1 29 1;
#X connect 29 0 30 0;
#X connect 30 0 31 0;
#X connect 31 0 7 0;
#X connect 32 0 1 0;
#X connect 33 0 13 0;
#X connect 34 0 35 0;
#X connect 35 0 36 0;
#X connect 35 1 36 1;
#X connect 36 0 51 0;
#X connect 37 0 40 0;
#X connect 38 0 32 0;
#X connect 38 0 42 0;
#X connect 38 0 44 0;
#X connect 38 0 45 0;
#X connect 38 0 48 0;
#X connect 38 0 50 0;
#X connect 39 0 33 1;
#X connect 39 0 41 1;
#X connect 39 0 43 1;
#X connect 39 0 47 1;
#X connect 39 0 49 1;
#X connect 40 0 39 0;
#X connect 41 0 8 0;
#X connect 42 0 2 0;
#X connect 43 0 25 0;
#X connect 44 0 1 0;
#X connect 45 0 2 0;
#X connect 46 0 26 0;
#X connect 47 0 19 0;
#X connect 48 0 1 0;
#X connect 49 0 22 0;
#X connect 50 0 2 0;
#X connect 51 0 37 0;
#X coords 0 -1 1 1 80 40 1 100 100;
#X restore 51 222 pd chorus2;
#X text 217 81 4/2022 martin brinkmann;
#X text 217 46 make random clusters/chords of vosim-tones (filtered
with lfo) on a scale plus chorus and reverb;
#X connect 0 0 4 0;
#X connect 0 1 3 0;
#X connect 2 0 1 0;
#X connect 2 1 1 1;
#X connect 3 0 2 1;
#X connect 3 1 2 0;
#X connect 4 0 2 0;
#X connect 4 1 2 1;
#X coords 0 561 1 560 120 140 0;
