#N canvas 0 0 500 500 10;
#X obj 504 252 dac~;
#X obj 324 180 tabplay~ SOUND;
#X obj 504 108 loadbang;
#X obj 432 180 tabplay~ SOUND;
#X obj 540 180 tabplay~ SOUND;
#X obj 648 180 tabplay~ SOUND;
#X obj 756 180 tabplay~ SOUND;
#X obj 216 153 metro 500;
#X obj 216 180 tabplay~ SOUND;
#X obj 324 153 metro 1250;
#X obj 432 153 metro 2000;
#X obj 540 153 metro 750;
#X obj 648 153 metro 1500;
#X obj 756 153 metro 1750;
#X obj 396 216 *~ 0.5;
#X obj 612 216 *~ 0.5;
#X connect 2 0 10 0;
#X connect 7 0 8 0;
#X connect 9 0 1 0;
#X connect 10 0 3 0;
#X connect 11 0 4 0;
#X connect 12 0 5 0;
#X connect 13 0 6 0;
#X connect 2 0 9 0;
#X connect 2 0 7 0;
#X connect 2 0 11 0;
#X connect 2 0 12 0;
#X connect 2 0 13 0;
#X connect 8 0 14 0;
#X connect 1 0 14 0;
#X connect 3 0 14 0;
#X connect 14 0 0 0;
#X connect 4 0 15 0;
#X connect 5 0 15 0;
#X connect 6 0 15 0;
#X connect 15 0 0 1;
