#N canvas 747 1614 450 300 12;
#N canvas 0 0 450 300 bla 0;
#X msg 105 104 110;
#X msg 144 104 220;
#X obj 123 137 osc~;
#X obj 127 181 outlet~;
#X connect 0 0 2 0;
#X connect 1 0 2 0;
#X connect 2 0 3 0;
#X coords 0 -1 1 1 85 60 1 100 100;
#X restore 75 73 pd bla;
#X obj 171 19 vsl 15 128 0 1 0 0 empty empty empty 0 -9 0 10 #fcfcfc
#000000 #000000 0 1;
#X obj 118 182 *~;
#X obj 112 220 dac~;
#X obj 187 17 vradio 15 1 0 8 empty empty empty 0 -8 0 10 #fcfcfc #000000
#000000 0;
#X obj 192 167 * 0.1;
#X obj 294 179 nbx 5 14 -1e+37 1e+37 0 0 empty empty empty 0 -8 0 10
#fcfcfc #000000 #000000 0 256;
#X connect 0 0 2 0;
#X connect 1 0 2 1;
#X connect 2 0 3 0;
#X connect 2 0 3 1;
#X connect 4 0 5 0;
#X connect 4 0 6 0;
#X connect 5 0 2 1;
