#N canvas 67 87 1853 993 10;
#X obj 466 280 dac~;
#X obj 295 125 loadbang;
#X obj 295 181 tabplay~ SOUND;
#X obj 395 125 loadbang;
#X obj 395 181 tabplay~ SOUND;
#X obj 500 125 loadbang;
#X obj 500 181 tabplay~ SOUND;
#X obj 608 124 loadbang;
#X obj 608 180 tabplay~ SOUND;
#X obj 715 125 loadbang;
#X obj 715 181 tabplay~ SOUND;
#X obj 185 127 loadbang;
#X obj 185 155 metro 500;
#X obj 185 183 tabplay~ SOUND;
#X obj 295 153 metro 1000;
#X obj 395 153 metro 250;
#X obj 500 153 metro 100;
#X obj 608 152 metro 1250;
#X obj 715 153 metro 5000;
#X connect 1 0 14 0;
#X connect 2 0 0 0;
#X connect 3 0 15 0;
#X connect 4 0 0 0;
#X connect 5 0 16 0;
#X connect 6 0 0 1;
#X connect 7 0 17 0;
#X connect 8 0 0 1;
#X connect 9 0 18 0;
#X connect 10 0 0 1;
#X connect 11 0 12 0;
#X connect 12 0 13 0;
#X connect 13 0 0 0;
#X connect 14 0 2 0;
#X connect 15 0 4 0;
#X connect 16 0 6 0;
#X connect 17 0 8 0;
#X connect 18 0 10 0;
