#N canvas 149 235 767 422 10;
#N canvas 490 252 790 712 hillageizer 1;
#X obj 194 466 dac~;
#N canvas 0 0 450 300 scale 0;
#X obj 211 128 inlet;
#X obj 208 350 outlet;
#X obj 212 171 t f f;
#X obj 208 324 int;
#X obj 210 149 int;
#X obj 206 277 + 1;
#X obj 206 206 * 3;
#X obj 206 234 / 2;
#X obj 109 127 vsl 12 64 0 64 0 1 \$0-N1 \$0-N1-r N 0 -8 1 8 #d8fcfc
#000000 #000000 500 1;
#X obj 163 127 vsl 12 64 12 96 0 1 \$0-C1 \$0-C1-r C 0 -8 1 8 #f8d8fc
#000000 #000000 4600 1;
#X obj 136 127 vsl 12 64 1 64 0 1 \$0-D1 \$0-D1-r D 0 -8 1 8 #dce4fc
#000000 #000000 0 1;
#X connect 0 0 4 0;
#X connect 2 0 6 0;
#X connect 3 0 1 0;
#X connect 4 0 2 0;
#X connect 5 0 3 0;
#X connect 6 0 7 0;
#X connect 7 0 5 0;
#X connect 8 0 6 1;
#X connect 9 0 5 1;
#X connect 10 0 7 1;
#X coords 0 -1 1 1 85 100 1 100 100;
#X restore 118 253 pd scale;
#N canvas 0 0 450 300 scale 0;
#X obj 211 128 inlet;
#X obj 208 350 outlet;
#X obj 212 171 t f f;
#X obj 208 324 int;
#X obj 210 149 int;
#X obj 206 277 + 1;
#X obj 206 206 * 3;
#X obj 206 234 / 2;
#X obj 109 127 vsl 12 64 0 64 0 1 \$0-N2 \$0-N2-r N 0 -8 1 8 #d8fcfc
#000000 #000000 0 1;
#X obj 163 127 vsl 12 64 24 96 0 1 \$0-C2 \$0-C2-r C 0 -8 1 8 #f8d8fc
#000000 #000000 4100 1;
#X obj 136 127 vsl 12 64 1 64 0 1 \$0-D2 \$0-D2-r D 0 -8 1 8 #dce4fc
#000000 #000000 0 1;
#X connect 0 0 4 0;
#X connect 2 0 6 0;
#X connect 3 0 1 0;
#X connect 4 0 2 0;
#X connect 5 0 3 0;
#X connect 6 0 7 0;
#X connect 7 0 5 0;
#X connect 8 0 6 1;
#X connect 9 0 5 1;
#X connect 10 0 7 1;
#X coords 0 -1 1 1 85 100 1 100 100;
#X restore 203 253 pd scale;
#N canvas 0 0 450 300 scale 0;
#X obj 211 128 inlet;
#X obj 208 350 outlet;
#X obj 212 171 t f f;
#X obj 208 324 int;
#X obj 210 149 int;
#X obj 206 277 + 1;
#X obj 206 206 * 3;
#X obj 206 234 / 2;
#X obj 109 127 vsl 12 64 0 64 0 1 \$0-N3 \$0-N3-r N 0 -8 1 8 #d8fcfc
#000000 #000000 6300 1;
#X obj 163 127 vsl 12 64 24 96 0 1 \$0-C3 \$0-C3-r C 0 -8 1 8 #f8d8fc
#000000 #000000 3300 1;
#X obj 136 127 vsl 12 64 1 64 0 1 \$0-D3 \$0-D3-r D 0 -8 1 8 #dce4fc
#000000 #000000 3800 1;
#X connect 0 0 4 0;
#X connect 2 0 6 0;
#X connect 3 0 1 0;
#X connect 4 0 2 0;
#X connect 5 0 3 0;
#X connect 6 0 7 0;
#X connect 7 0 5 0;
#X connect 8 0 6 1;
#X connect 9 0 5 1;
#X connect 10 0 7 1;
#X coords 0 -1 1 1 85 100 1 100 100;
#X restore 288 253 pd scale;
#N canvas 0 0 450 300 eventshaker 0;
#X obj 5 177 sel 0 1 2 3;
#X obj 116 145 tgl 12 1 empty empty go 0 -12 1 10 #fc2828 #000000 #000000
1 1;
#X obj 5 260 mod 16;
#X obj 58 258 mod 12;
#X obj 109 256 mod 7;
#X obj 4 105 metro 25;
#X obj 277 125 vsl 12 64 1 32 0 1 \$0-M1 \$0-M1-r M1 0 -8 1 8 #fce0e0
#000000 #000000 600 1;
#X obj 300 125 vsl 12 64 1 32 0 1 \$0-M2 \$0-M2-r M2 0 -8 1 8 #d8d8c4
#000000 #000000 0 1;
#X obj 323 125 vsl 12 64 1 32 0 1 \$0-M3 \$0-M3-r M3 0 -8 1 8 #dce4fc
#000000 #000000 700 1;
#N canvas 0 0 450 300 count 0;
#X obj 119 73 + 1;
#X obj 90 72 f 0;
#X obj 91 44 inlet;
#X obj 89 164 outlet;
#X obj 88 95 / 2;
#X obj 89 119 int;
#X obj 90 142 change;
#X obj 168 44 inlet;
#X connect 0 0 1 1;
#X connect 1 0 0 0;
#X connect 1 0 4 0;
#X connect 2 0 1 0;
#X connect 4 0 5 0;
#X connect 5 0 6 0;
#X connect 6 0 3 0;
#X connect 7 0 4 1;
#X restore 5 219 pd count;
#X obj 196 125 vsl 12 64 1 4 0 1 \$0-V1 \$0-V1-r V1 0 -8 1 8 #d8fcd8
#000000 #000000 400 1;
#X obj 221 125 vsl 12 64 1 4 0 1 \$0-V2 \$0-V2-r V2 0 -8 1 8 #fcfcc8
#000000 #000000 0 1;
#N canvas 0 0 450 300 count 0;
#X obj 119 73 + 1;
#X obj 90 72 f 0;
#X obj 91 44 inlet;
#X obj 89 164 outlet;
#X obj 88 95 / 2;
#X obj 89 119 int;
#X obj 90 142 change;
#X obj 168 44 inlet;
#X connect 0 0 1 1;
#X connect 1 0 0 0;
#X connect 1 0 4 0;
#X connect 2 0 1 0;
#X connect 4 0 5 0;
#X connect 5 0 6 0;
#X connect 6 0 3 0;
#X connect 7 0 4 1;
#X restore 73 220 pd count;
#N canvas 0 0 450 300 count 0;
#X obj 119 73 + 1;
#X obj 90 72 f 0;
#X obj 91 44 inlet;
#X obj 89 164 outlet;
#X obj 88 95 / 2;
#X obj 89 119 int;
#X obj 90 142 change;
#X obj 168 44 inlet;
#X connect 0 0 1 1;
#X connect 1 0 0 0;
#X connect 1 0 4 0;
#X connect 2 0 1 0;
#X connect 4 0 5 0;
#X connect 5 0 6 0;
#X connect 6 0 3 0;
#X connect 7 0 4 1;
#X restore 135 220 pd count;
#X obj 246 125 vsl 12 64 1 4 0 1 \$0-V3 \$0-V3-r V3 0 -8 1 8 #d8fcfc
#000000 #000000 100 1;
#X obj 4 289 outlet;
#X obj 55 288 outlet;
#X obj 109 286 outlet;
#X obj 139 125 vsl 12 64 10 200 1 1 \$0-T \$0-T-r T 0 -8 1 8 #f8d8fc
#000000 #000000 300 1;
#N canvas 0 0 450 300 count 0;
#X obj 119 73 + 1;
#X obj 90 72 f 0;
#X obj 91 44 inlet;
#X obj 89 164 outlet;
#X connect 0 0 1 1;
#X connect 1 0 0 0;
#X connect 1 0 3 0;
#X connect 2 0 1 0;
#X restore 4 128 pd count;
#X obj 5 152 mod 3;
#X connect 0 0 9 0;
#X connect 0 1 12 0;
#X connect 0 2 13 0;
#X connect 1 0 5 0;
#X connect 2 0 15 0;
#X connect 3 0 16 0;
#X connect 4 0 17 0;
#X connect 5 0 19 0;
#X connect 6 0 2 1;
#X connect 7 0 3 1;
#X connect 8 0 4 1;
#X connect 9 0 2 0;
#X connect 10 0 9 1;
#X connect 11 0 12 1;
#X connect 12 0 3 0;
#X connect 13 0 4 0;
#X connect 14 0 13 1;
#X connect 18 0 5 1;
#X connect 19 0 20 0;
#X connect 20 0 0 0;
#X coords 0 -1 1 1 255 100 1 100 100;
#X restore 118 153 pd eventshaker;
#N canvas 0 0 1253 916 phasors 0;
#X obj -248 67 random 100;
#X obj -248 5 loadbang;
#X msg -248 25 1;
#X obj -248 46 metro 1000;
#X msg -248 87 \$1 1000;
#X obj -90 397 *~;
#X obj -57 397 *~;
#X obj -98 278 *~ 0.7;
#X obj -98 722 outlet~;
#X obj -43 721 outlet~;
#X obj -97 255 vcf~ 500 3;
#X obj 1 256 vcf~ 600 4;
#X obj -248 109 line~;
#X obj -229 220 /~ 100;
#X obj -183 220 /~ 100;
#X obj -229 242 +~ 0.1;
#X obj -183 241 +~ 0.1;
#X obj -224 134 -~;
#X obj -205 109 sig~ 100;
#X obj 71 325 +~ 30;
#X obj 72 303 *~ 5;
#X obj 73 282 osc~ 0.1;
#X obj -44 426 *~ 0.8;
#X obj -98 428 *~ 0.8;
#X obj -228 157 *~ 7;
#X obj -187 156 *~ 7;
#X obj -227 180 +~ 300;
#X obj -186 179 +~ 400;
#X msg -218 25 9;
#X obj -149 44 phasor~ 300;
#X obj -148 20 mtof;
#X obj -125 144 *~ 0.1;
#X obj -63 43 phasor~ 300;
#X obj -62 19 mtof;
#X obj 24 43 phasor~ 300;
#X obj 25 19 mtof;
#X obj -33 102 *~;
#X obj -63 100 *~;
#X obj -98 100 *~;
#X obj -73 144 *~ 0.9;
#X obj 1 142 *~ 0.9;
#X obj 53 143 *~ 0.1;
#X obj -97 193 *~ 0.7;
#X obj 0 194 *~ 0.7;
#X obj -72 124 *~ 0.6;
#X obj -146 -69 inlet;
#X obj -96 -69 inlet;
#X obj -45 -70 inlet;
#X obj 209 128 vsl 12 64 0.02 2 1 1 \$0-lfo \$0-lfo-r lfo 0 -8 1 8
#fce0c0 #000000 #000000 1900 1;
#X obj 235 128 vsl 12 64 0.02 9 1 1 \$0-amt \$0-amt-r amt 0 -8 1 8
#fce0dc #000000 #000000 1200 1;
#X obj 262 128 vsl 12 64 10 80 1 1 \$0-del \$0-del-r del 0 -8 1 8 #d8fcd8
#000000 #000000 400 1;
#X obj 6 505 +~;
#X obj 48 505 +~;
#X obj -9 555 +~;
#X obj 95 556 +~;
#X obj 33 555 -~;
#X obj 135 555 -~;
#X obj -10 611 +~;
#X obj 34 612 +~;
#X obj 78 613 -~;
#X obj 117 613 -~;
#X obj -9 640 *~ 0.4;
#X obj 35 666 *~ 0.37;
#X obj 76 695 *~ 0.333;
#X obj 115 723 *~ 0.3;
#X obj 114 747 delwrite~ \$0-D 1000;
#X obj 75 770 delwrite~ \$0-C 1000;
#X obj 36 793 delwrite~ \$0-B 1000;
#X obj -9 815 delwrite~ \$0-A 1000;
#X obj 60 451 delread~ \$0-A 101;
#X obj 90 471 delread~ \$0-B 143;
#X obj 120 491 delread~ \$0-C 165;
#X obj 150 511 delread~ \$0-D 177;
#X obj -89 695 *~;
#X obj -33 692 *~;
#X obj 292 128 vsl 12 64 0.01 1 1 1 \$0-verb \$0-verb-r verb 0 -8 1
8 #d8fcfc #000000 #000000 3900 1;
#X obj -89 302 delwrite~ \$0-flange 1000;
#X obj 72 348 vd~ \$0-flange 100;
#X obj 144 128 vsl 12 64 0.01 1 1 1 \$0-L1 \$0-L1-r L1 0 -8 1 8 #a03000
#000000 #000000 5400 1;
#X obj 163 128 vsl 12 64 0.01 1 1 1 \$0-L2 \$0-L2-r L2 0 -8 1 8 #c83018
#000000 #000000 5300 1;
#X obj 185 128 vsl 12 64 0.01 1 1 1 \$0-L3 \$0-L3-r L3 0 -8 1 8 #c41850
#000000 #000000 4700 1;
#X connect 0 0 4 0;
#X connect 1 0 2 0;
#X connect 1 0 28 0;
#X connect 2 0 3 0;
#X connect 3 0 0 0;
#X connect 4 0 12 0;
#X connect 5 0 23 0;
#X connect 6 0 22 0;
#X connect 7 0 23 0;
#X connect 7 0 76 0;
#X connect 10 0 7 0;
#X connect 11 0 5 0;
#X connect 11 0 6 0;
#X connect 12 0 13 0;
#X connect 12 0 17 1;
#X connect 12 0 24 0;
#X connect 13 0 15 0;
#X connect 14 0 16 0;
#X connect 15 0 5 1;
#X connect 16 0 6 1;
#X connect 17 0 14 0;
#X connect 17 0 25 0;
#X connect 18 0 17 0;
#X connect 19 0 77 0;
#X connect 20 0 19 0;
#X connect 21 0 20 0;
#X connect 22 0 9 0;
#X connect 22 0 52 0;
#X connect 23 0 8 0;
#X connect 23 0 51 0;
#X connect 24 0 26 0;
#X connect 25 0 27 0;
#X connect 26 0 10 1;
#X connect 27 0 11 1;
#X connect 28 0 10 2;
#X connect 28 0 11 2;
#X connect 29 0 38 0;
#X connect 30 0 29 0;
#X connect 31 0 42 0;
#X connect 32 0 37 0;
#X connect 33 0 32 0;
#X connect 34 0 36 0;
#X connect 35 0 34 0;
#X connect 36 0 40 0;
#X connect 36 0 41 0;
#X connect 37 0 44 0;
#X connect 38 0 31 0;
#X connect 38 0 39 0;
#X connect 39 0 43 0;
#X connect 40 0 42 0;
#X connect 41 0 43 0;
#X connect 42 0 10 0;
#X connect 43 0 11 0;
#X connect 44 0 42 0;
#X connect 44 0 43 0;
#X connect 45 0 30 0;
#X connect 46 0 33 0;
#X connect 47 0 35 0;
#X connect 48 0 21 0;
#X connect 49 0 20 1;
#X connect 50 0 19 1;
#X connect 51 0 53 0;
#X connect 51 0 55 0;
#X connect 51 0 73 0;
#X connect 52 0 53 1;
#X connect 52 0 55 1;
#X connect 52 0 74 0;
#X connect 53 0 57 0;
#X connect 53 0 59 0;
#X connect 54 0 59 1;
#X connect 54 0 57 1;
#X connect 55 0 58 0;
#X connect 55 0 60 0;
#X connect 56 0 58 1;
#X connect 56 0 60 1;
#X connect 57 0 61 0;
#X connect 58 0 62 0;
#X connect 59 0 63 0;
#X connect 60 0 64 0;
#X connect 61 0 68 0;
#X connect 62 0 67 0;
#X connect 63 0 66 0;
#X connect 64 0 65 0;
#X connect 69 0 51 1;
#X connect 70 0 52 1;
#X connect 71 0 56 0;
#X connect 71 0 54 0;
#X connect 72 0 56 1;
#X connect 72 0 54 1;
#X connect 73 0 8 0;
#X connect 74 0 9 0;
#X connect 75 0 74 1;
#X connect 75 0 73 1;
#X connect 77 0 22 0;
#X connect 78 0 38 1;
#X connect 79 0 37 1;
#X connect 80 0 36 1;
#X coords 0 -1 1 1 255 100 1 100 100;
#X restore 118 354 pd phasors;
#X symbolatom 211 133 25 0 0 2 patchname \$0-patchname - 0;
#X obj 110 135 hradio 12 1 0 8 \$0-patch \$0-patch-r patch 0 -8 1 9
#fc2828 #fcfcfc #000000 0;
#X obj 418 101 bng 15 80 50 0 \$0-savetweet empty empty 0 -6 0 8 #fcfcfc
#000000 #000000;
#N canvas 0 0 1253 916 presets 0;
#X obj 60 22 inlet;
#X obj 26 600 outlet;
#X msg 33 96 golden-dawn 11.5333 1.19048 1 1.04762 3.95238 1 4.44444
5.07937 1 73.3333 0 1 70.8571 64 39 61.7143 0.517947 0.481437 0.310501
0.0802056 0.064033 11.4114 0.17302;
#X msg 37 148 om-o-matic 27.1442 1.19048 1 1.04762 3.95238 2.47619
4.44444 5.07937 1 73.3333 22.3492 18 66.2857 64 39 61.7143 0.517947
0.481437 0.310501 0.0802056 0.225887 11.4114 0.386635;
#X msg 33 269 tree-auras 27.1442 1.47619 1 1.04762 3.95238 2.47619
1.98413 10.1587 7 73.3333 22.3492 18 81.1429 64 39 33.1429 0.334049
0.200257 0.415956 0.0802056 0.225887 11.4114 0.386635;
#X msg 43 337 sky-high 13.9495 2.66667 1.71429 1.33333 3.95238 2.47619
9.85714 22.3492 7 73.3333 24.381 6 81.1429 26.4127 23 69.7143 0.644947
0.249359 0.359381 0.0802056 0.225887 11.4114 0.386635;
#X msg 51 403 flying-teapot 52.8195 1.2381 1.19048 1.2381 9.85714 9.36508
9.85714 14.2222 5 70.6667 14.2222 8 65.1429 12.1905 8 66.2857 0.644947
0.249359 0.359381 0.0802056 0.225887 11.4114 0.386635;
#X msg 31 213 glorious 29.8524 1 1.04762 1.04762 2.47619 2.47619 2.47619
5.07937 1 56 2.03175 1 59.4286 1.01587 1 65.1429 0.693857 0.481437
1 0.0802056 6.7282 45.6456 0.386635;
#X msg 64 517 saucer-people 10.487 1.80952 1.52381 1.47619 5.92063
5.92063 5.92063 48.7619 14 70.6667 20.3175 8 77.7143 13.2063 6 78.8571
0.693857 0.481437 1 1.03589 4.565 74.8894 0.415956;
#X msg 58 466 crystal-city 31.3062 1.14286 1.14286 1.14286 3.46032
3.46032 3.46032 12.1905 1 61.3333 10.1587 1 73.1429 13.2063 1 80 0.693857
0.481437 1 0.115594 4.565 16.4067 0.012452;
#X obj 60 53 select 0 1 2 3 4 5 6 7;
#X connect 0 0 10 0;
#X connect 2 0 1 0;
#X connect 3 0 1 0;
#X connect 4 0 1 0;
#X connect 5 0 1 0;
#X connect 6 0 1 0;
#X connect 7 0 1 0;
#X connect 8 0 1 0;
#X connect 9 0 1 0;
#X connect 10 0 2 0;
#X connect 10 1 3 0;
#X connect 10 2 7 0;
#X connect 10 3 4 0;
#X connect 10 4 5 0;
#X connect 10 5 6 0;
#X connect 10 6 9 0;
#X connect 10 7 8 0;
#X restore 418 227 pd presets;
#N canvas 0 0 1194 309 loader 0;
#X obj 201 -37 inlet;
#X obj -38 88 s \$0-patchname;
#X obj 68 88 s \$0-T-r;
#X obj 161 88 s \$0-V1-r;
#X obj 253 88 s \$0-V2-r;
#X obj 341 88 s \$0-V3-r;
#X obj 430 88 s \$0-M1-r;
#X obj 519 88 s \$0-M2-r;
#X obj 610 88 s \$0-M3-r;
#X obj 699 88 s \$0-N1-r;
#X obj 391 126 s \$0-D1-r;
#X obj 484 126 s \$0-C1-r;
#X obj 570 126 s \$0-N2-r;
#X obj 647 126 s \$0-D2-r;
#X obj 725 126 s \$0-C2-r;
#X obj 803 126 s \$0-N3-r;
#X obj 881 126 s \$0-D3-r;
#X obj 973 126 s \$0-C3-r;
#X obj 202 -14 unpack s f f f f f f f f f f f f f f f f f f f f f f
f;
#X obj 440 177 s \$0-L1-r;
#X obj 533 177 s \$0-L2-r;
#X obj 619 177 s \$0-L3-r;
#X obj 697 177 s \$0-lfo-r;
#X obj 774 177 s \$0-amt-r;
#X obj 852 177 s \$0-del-r;
#X obj 930 176 s \$0-verb-r;
#X connect 0 0 18 0;
#X connect 18 0 1 0;
#X connect 18 1 2 0;
#X connect 18 2 3 0;
#X connect 18 3 4 0;
#X connect 18 4 5 0;
#X connect 18 5 6 0;
#X connect 18 6 7 0;
#X connect 18 7 8 0;
#X connect 18 8 9 0;
#X connect 18 9 10 0;
#X connect 18 10 11 0;
#X connect 18 11 12 0;
#X connect 18 12 13 0;
#X connect 18 13 14 0;
#X connect 18 14 15 0;
#X connect 18 15 16 0;
#X connect 18 16 17 0;
#X connect 18 17 19 0;
#X connect 18 18 20 0;
#X connect 18 19 21 0;
#X connect 18 20 22 0;
#X connect 18 21 23 0;
#X connect 18 22 24 0;
#X connect 18 23 25 0;
#X restore 418 248 pd loader;
#X obj 419 205 r \$0-patch;
#N canvas 0 0 1253 916 saver 0;
#X obj 117 452 outlet;
#X msg 117 358 name;
#X obj 46 137 bng 15 250 50 0 empty empty empty 0 -6 0 8 #fcfcfc #000000
#000000;
#X obj 4 94 inlet;
#X obj 119 384 pack s f f f f f f f f f f f f f f f f f f f f f f f
;
#X obj 131 30 r \$0-T;
#X obj 225 30 r \$0-V1;
#X obj 316 30 r \$0-V2;
#X obj 404 30 r \$0-V3;
#X obj 493 31 r \$0-M1;
#X obj 580 30 r \$0-M2;
#X obj 673 30 r \$0-M3;
#X obj 762 30 r \$0-N1;
#X obj 454 68 r \$0-D1;
#X obj 547 68 r \$0-C1;
#X obj 633 68 r \$0-N2;
#X obj 710 68 r \$0-D2;
#X obj 790 69 r \$0-C2;
#X obj 866 68 r \$0-N3;
#X obj 944 68 r \$0-D3;
#X obj 1036 68 r \$0-C3;
#X obj 551 108 r \$0-L1;
#X obj 641 107 r \$0-L2;
#X obj 726 106 r \$0-L3;
#X obj 804 107 r \$0-lfo;
#X obj 881 107 r \$0-amt;
#X obj 959 107 r \$0-del;
#X obj 1037 106 r \$0-verb;
#X msg 117 414 set \$1 \$2 \$3 \$4 \$5 \$6 \$7 \$8 \$9 \$10 \$11 \$12
\$13 \$14 \$15 \$16 \$17 \$18 \$19 \$20 \$21 \$22 \$23 \$24;
#X connect 1 0 4 0;
#X connect 2 0 1 0;
#X connect 3 0 1 0;
#X connect 4 0 28 0;
#X connect 5 0 4 1;
#X connect 6 0 4 2;
#X connect 7 0 4 3;
#X connect 8 0 4 4;
#X connect 9 0 4 5;
#X connect 10 0 4 6;
#X connect 11 0 4 7;
#X connect 12 0 4 8;
#X connect 13 0 4 9;
#X connect 14 0 4 10;
#X connect 15 0 4 11;
#X connect 16 0 4 12;
#X connect 17 0 4 13;
#X connect 18 0 4 14;
#X connect 19 0 4 15;
#X connect 20 0 4 16;
#X connect 21 0 4 17;
#X connect 22 0 4 18;
#X connect 23 0 4 19;
#X connect 24 0 4 20;
#X connect 25 0 4 21;
#X connect 26 0 4 22;
#X connect 27 0 4 23;
#X connect 28 0 0 0;
#X restore 418 122 pd saver;
#X msg 418 143 saucer-people 10.487 1.80952 1.52381 1.47619 5.92063
5.92063 5.92063 48.7619 14 70.6667 20.3175 8 77.7143 13.2063 6 78.8571
0.693857 0.481437 1 1.03589 4.565 74.8894 0.415956;
#X obj 489 229 print PRESET-PATCH;
#X connect 1 0 5 0;
#X connect 2 0 5 1;
#X connect 3 0 5 2;
#X connect 4 0 1 0;
#X connect 4 1 2 0;
#X connect 4 2 3 0;
#X connect 5 0 0 0;
#X connect 5 1 0 1;
#X connect 8 0 12 0;
#X connect 9 0 10 0;
#X connect 11 0 9 0;
#X connect 11 0 14 0;
#X connect 12 0 13 0;
#X coords 0 -1 1 1 300 360 1 100 100;
#X restore 19 7 pd hillageizer;
#X text 331 18 Hillageizer by Andy Farnell : "based on my conversations
with Miquette Giraudy when I was on tour with System 7";
